<svg width="1799" height="168" viewBox="0 0 1799 168" fill="none" xmlns="http://www.w3.org/2000/svg">
<path d="M1652.09 92.8442C1608.7 86.5208 1579.58 109.666 1570.45 122.028C1591.91 102.572 1604.51 111.895 1608.13 118.988C1612.7 128.717 1619.93 129.122 1622.97 128.109C1638.05 120.812 1624.69 109.26 1616.12 104.396C1639.53 94.6682 1652.09 111.692 1659.51 131.757C1665.45 147.808 1676.45 148.173 1681.21 146.349C1697.12 136.414 1674.17 117.57 1660.65 111.692C1664.08 111.692 1674.59 112.422 1689.2 115.34C1703.82 118.259 1707.47 142.498 1707.47 154.253C1705.64 169.818 1715.82 166.75 1720.03 162.157C1732.82 146.592 1707.47 124.46 1693.2 115.34C1718.78 115.34 1725.46 131.574 1732.59 139.053C1748.58 157.536 1755.24 149.997 1756.57 143.917C1758.4 120.083 1723.46 114.124 1705.76 114.124C1716.61 110.476 1742.3 106.342 1758.28 118.988C1774.27 131.635 1785.12 124.258 1788.54 118.988C1797.48 97.0367 1756.19 98.7216 1738.3 104.396C1789.91 84.4537 1799.01 48.6625 1797.11 33.2597C1796.73 22.5183 1791.86 1.15702 1775.41 1.64342C1758.97 2.12983 1761.33 16.0329 1764.57 22.9236C1769.35 33.1166 1778.08 43.1905 1777.13 49.6758C1777.13 75.9417 1748.96 93.8576 1734.88 99.5323C1750.86 92.8442 1779.41 44.2038 1759.43 37.5157C1743.44 32.1653 1742.87 43.3931 1744.58 49.6758C1747.11 63.5023 1748.21 74.5575 1741.07 84.5399C1739.88 86.5869 1738.23 88.7513 1736.02 91.0202C1723.23 104.153 1719.27 105.41 1718.89 104.396C1725.61 100.486 1734.73 93.4147 1741.07 84.5399C1748.51 71.7763 1738 63.5759 1732.59 63.052C1727.57 62.5655 1725.93 66.4973 1725.74 68.524C1729.4 97.7083 1707.47 108.247 1696.05 109.868C1724.83 99.6539 1719.08 87.7775 1712.61 83.1161C1699.36 77.7657 1692.63 87.3722 1690.91 92.8442C1683.15 114.732 1655.71 108.044 1642.96 101.964C1654.95 106.828 1669.1 109.101 1673.79 97.1003C1676.95 89.0051 1664.08 87.3722 1661.23 91.0202C1658.94 93.9386 1654.18 93.4522 1652.09 92.8442Z" fill="#0F1A2C"/>
<path d="M1569.15 121.072C1570.02 121.71 1570.88 122.347 1571.74 122.985C1586.67 104.398 1611.03 93.9936 1634.95 93.4141C1640.59 93.2606 1646.26 93.6198 1651.86 94.4365L1651.64 94.3895C1655.13 95.2405 1659.48 95.522 1662.49 92.0118C1665.27 89.1894 1675.1 91.525 1672.29 96.5152C1668.38 107.671 1653.45 104.609 1643.56 100.473L1642.26 103.417C1650.85 107.373 1660.19 109.902 1669.85 109.456C1679.45 109.357 1689.58 102.98 1692.43 93.3822L1692.45 93.3249C1694.82 85.145 1704.12 80.7075 1712.01 84.6081L1711.67 84.4217C1714.11 86.1779 1716.05 88.7957 1716.25 91.5334C1716.49 94.2738 1714.87 96.9862 1712.62 99.1232C1708.02 103.413 1701.73 106.102 1695.51 108.352L1696.28 111.462C1716.36 109.082 1731.32 87.9178 1727.34 68.3241L1727.34 68.6744C1727.63 66.1172 1729.7 64.2638 1732.44 64.6536C1736.07 65.1655 1739.85 68.3218 1741.28 71.9854C1742.81 75.7183 1741.87 80.0518 1739.68 83.7302L1742.38 85.4758C1750.34 74.8387 1748.29 60.9334 1746.17 49.3866L1746.13 49.2526C1745.12 45.5141 1745.2 40.8366 1747.85 38.8965C1750.53 36.9184 1755.06 37.7549 1758.92 39.0417C1764.48 40.6 1765.38 47.4034 1764.23 53.2213C1763.13 59.1768 1760.71 64.9706 1757.86 70.4835C1752.01 81.1877 1744.57 92.5581 1734.26 98.0478L1735.48 101.025C1756.25 91.8943 1778.19 74.8298 1778.73 49.6758L1778.72 49.9094C1778.07 37.9457 1769.75 31.2756 1766.02 22.2397C1764.11 18.0568 1763.05 12.9917 1764.57 8.99909C1766.04 4.94576 1770.77 3.32945 1775.46 3.25184C1789.55 2.80568 1794.87 20.4621 1795.5 33.3167L1795.51 33.457C1797.36 66.4718 1767.46 92.012 1737.72 102.895L1738.79 105.93C1748.65 102.988 1759.3 101.87 1769.62 102.537C1774.72 102.951 1779.98 103.831 1784.06 106.386C1788.32 108.837 1789.11 113.818 1787.05 118.382L1787.2 118.111C1781.1 127.441 1767.38 124.932 1759.28 117.726C1743.54 105.966 1722.78 107.397 1705.25 112.599L1705.76 115.734C1716.46 115.832 1727.4 117.429 1737.31 121.339C1747.09 125.011 1756.23 133.168 1754.97 143.794L1755 143.572C1754.52 145.803 1753.26 147.913 1751.48 148.696C1749.72 149.526 1747.38 149.025 1745.25 147.942C1740.93 145.705 1737.22 141.894 1733.81 138L1733.76 137.942C1728.73 132.27 1724.16 124.824 1717.02 120.24C1709.99 115.491 1701.43 113.699 1693.2 113.731L1687.69 113.726L1692.33 116.696C1700.55 122.037 1708.3 128.447 1714.46 136C1720.48 143.224 1725.24 153.877 1718.79 161.135L1718.85 161.069C1716.71 163.434 1712.68 165.207 1710.76 163.724C1708.72 162.212 1708.65 157.953 1709.07 154.44L1709.08 154.253C1708.23 139.606 1707.12 119.593 1689.52 113.762C1680.01 111.91 1670.52 110.376 1660.65 110.083L1660.01 113.168C1667.16 116.401 1673.9 121.118 1679.27 126.838C1684.75 132.25 1687.87 141.217 1680.36 144.984L1680.63 144.846C1672.08 147.919 1663.79 139.897 1661.02 131.198C1657.52 121.933 1653.07 112.465 1644.99 105.786C1636.93 98.7465 1624.66 98.7359 1615.5 102.91L1612.47 104.166L1615.33 105.796C1621.23 109.303 1628.54 114.712 1628.13 120.72C1627.77 123.255 1625.13 125.291 1622.27 126.66L1622.47 126.582C1617.32 128.101 1611.88 123.694 1609.59 118.305L1609.56 118.258C1605.92 110.822 1596.58 107.303 1588.95 109.365C1581.26 111.175 1574.94 115.846 1569.37 120.836C1570.09 121.631 1570.81 122.426 1571.53 123.221C1576.87 118.412 1582.92 114.065 1589.65 112.506C1596.31 110.765 1603.68 113.7 1606.7 119.719L1606.67 119.672C1609.22 125.604 1615.74 131.826 1623.48 129.635L1623.67 129.557C1626.81 127.996 1630.53 125.649 1631.31 121.224C1631.35 111.391 1623.13 107.065 1616.92 102.997L1616.74 105.882C1625.42 102.026 1635.78 102.099 1642.97 108.292C1650.23 114.25 1654.62 123.297 1658 132.315C1660.87 141.47 1670.5 151.824 1681.78 147.851L1682.06 147.714C1685.84 145.626 1689.16 140.684 1688.05 135.927C1687.16 131.324 1684.44 127.783 1681.64 124.662C1675.84 118.508 1668.97 113.707 1661.3 110.217L1660.65 113.301C1669.98 113.576 1679.55 115.091 1688.89 116.918C1702.84 120.97 1705.36 140.194 1705.86 154.253L1705.87 154.065C1705.62 157.913 1704.73 162.635 1708.86 166.327C1713.83 169.253 1718.31 166.126 1721.22 163.245L1721.28 163.178C1729.26 153.993 1723.16 141.328 1716.97 133.983C1710.47 126.03 1702.57 119.521 1694.06 113.984L1693.2 116.95C1709.59 116.023 1721.96 126.732 1731.43 140.163L1731.38 140.105C1734.94 144.146 1738.7 148.145 1743.8 150.82C1746.31 152.075 1749.64 153.053 1752.81 151.627C1755.94 150.176 1757.5 147.119 1758.14 144.261L1758.18 144.04C1759.68 131.611 1748.69 122.057 1738.52 118.355C1728.03 114.231 1716.87 112.627 1705.76 112.515L1706.27 115.65C1722.95 110.623 1743.19 109.541 1757.29 120.25C1765.59 127.859 1782.28 131.539 1789.89 119.865L1790.03 119.595C1791.09 116.976 1791.82 113.967 1791.14 110.87C1790.5 107.766 1788.26 105.223 1785.81 103.682C1780.79 100.585 1775.24 99.7921 1769.86 99.3278C1759.02 98.643 1748.26 99.7597 1737.82 102.863L1738.88 105.897C1769.16 94.7014 1800.58 68.8254 1798.71 33.0624L1798.72 33.2027C1798.37 25.9143 1796.85 18.6834 1793.48 12.0524C1790.35 5.49575 1783.35 -0.515329 1775.37 0.0350035C1770.31 0.0761581 1763.72 2.01281 1761.58 7.81574C1759.58 13.3212 1760.99 18.8261 1763.11 23.6075C1767.12 32.7564 1775.29 41.0336 1775.53 49.4422L1775.52 49.6758C1775.22 72.4972 1754.3 89.3276 1734.28 98.0398L1735.5 101.017C1747.62 94.4544 1754.49 83.1114 1760.71 71.9717C1763.66 66.2559 1766.2 60.2735 1767.39 53.7819C1767.95 50.5431 1768.21 47.087 1767.24 43.6419C1766.37 40.1912 1763.42 37.022 1759.94 35.9898C1755.75 34.7177 1750.66 33.1475 1745.92 36.3209C1741.41 40.0148 1741.96 45.7558 1743.03 50.0991L1743 49.9651C1745.15 61.5523 1746.84 74.2201 1739.76 83.6041L1742.46 85.3497C1748.56 77.1974 1743.74 62.9805 1732.75 61.4503C1728.82 60.6798 1724.32 64.2659 1724.14 68.3736L1724.14 68.7239C1727.74 87.2191 1714.26 105.91 1695.83 108.275L1696.59 111.385C1703.01 109.035 1709.52 106.371 1714.85 101.443C1717.42 99.0002 1719.8 95.4118 1719.46 91.2869C1719.12 87.2021 1716.51 83.9663 1713.55 81.8105L1713.21 81.6241C1708.83 79.8104 1703.43 79.1298 1698.77 81.3255C1694.13 83.4892 1690.93 87.6731 1689.38 92.3635L1689.4 92.3062C1683.53 110.91 1658.83 107.811 1643.65 100.512L1642.35 103.455C1647.88 105.662 1653.72 107.49 1659.97 107.503C1666.12 107.802 1673.26 103.964 1675.29 97.6853C1675.97 95.9951 1676.24 93.711 1675.17 91.7789C1674.12 89.868 1672.31 88.8262 1670.61 88.2391C1667.18 87.301 1663.38 86.6997 1659.96 90.0285C1658.64 91.8216 1655.19 92.0325 1652.54 91.299L1652.32 91.2519C1646.55 90.4101 1640.7 90.0382 1634.86 90.1971C1610.06 90.8593 1585.03 101.358 1569.15 121.072ZM1720.4 103.831C1719.39 104.208 1718.39 104.585 1717.38 104.962C1717.58 105.564 1718.26 106.077 1718.69 106.177C1719.15 106.309 1719.44 106.284 1719.71 106.262C1720.21 106.202 1720.53 106.086 1720.84 105.968C1721.46 105.727 1721.95 105.452 1722.43 105.167C1728.19 101.401 1732.59 96.7386 1737.17 92.1428C1739.15 90.1061 1740.99 87.8769 1742.46 85.3497L1739.76 83.6041C1734.66 90.6804 1727.94 96.6641 1720.6 101.461C1719.77 101.995 1718.93 102.512 1718.08 103.006C1718.62 103.933 1719.16 104.86 1719.7 105.787C1720.59 105.266 1721.48 104.723 1722.34 104.165C1730.01 99.1502 1736.96 92.9836 1742.38 85.4758L1739.68 83.7302C1738.39 85.9507 1736.71 87.9991 1734.87 89.8976C1730.41 94.3992 1725.81 99.1388 1720.79 102.402C1720.4 102.632 1720.01 102.84 1719.68 102.966C1719.53 103.028 1719.37 103.064 1719.37 103.061C1719.37 103.065 1719.42 103.04 1719.63 103.099C1719.83 103.132 1720.29 103.471 1720.4 103.831Z" fill="#0F1A2C"/>
<path d="M146.694 92.8442C190.085 86.5208 219.203 109.666 228.338 122.028C206.871 102.572 194.272 111.895 190.656 118.988C186.089 128.717 178.857 129.122 175.812 128.109C160.739 120.812 174.099 109.26 182.663 104.396C159.255 94.6682 146.694 111.692 139.272 131.757C133.334 147.808 122.334 148.173 117.577 146.349C101.664 136.414 124.618 117.57 138.13 111.692C134.705 111.692 124.199 112.422 109.584 115.34C94.9676 118.259 91.3136 142.498 91.3136 154.253C93.1406 169.818 82.9662 166.75 78.7531 162.157C65.9642 146.592 91.3136 124.46 105.587 115.34C80.0091 115.34 73.3258 131.574 66.1925 139.053C50.2064 157.536 43.5455 149.997 42.2133 143.917C40.3863 120.083 75.3275 114.124 93.0264 114.124C82.1787 110.476 56.4866 106.342 40.5005 118.988C24.5143 131.635 13.6666 124.258 10.241 118.988C1.30483 97.0367 42.5939 98.7216 60.4832 104.396C8.87071 84.4537 -0.226164 48.6625 1.67694 33.2597C2.05757 22.5183 6.92955 1.15702 23.3725 1.64342C39.8154 2.12983 37.4555 16.0329 34.2202 22.9236C29.4344 33.1166 20.7081 43.1905 21.6596 49.6758C21.6596 75.9417 49.8257 93.8576 63.9088 99.5323C47.9226 92.8442 19.3759 44.2038 39.3586 37.5157C55.3448 32.1653 55.9157 43.3931 54.2029 49.6758C51.6761 63.5023 50.5752 74.5575 57.7122 84.5399C58.9042 86.5869 60.5575 88.7513 62.7669 91.0202C75.5558 104.153 79.5143 105.41 79.8949 104.396C73.1775 100.486 64.0573 93.4147 57.7122 84.5399C50.2797 71.7763 60.7803 63.5759 66.1925 63.052C71.2167 62.5655 72.8534 66.4973 73.0437 68.524C69.3898 97.7083 91.3136 108.247 102.732 109.868C73.9572 99.6539 79.7046 87.7775 86.1752 83.1161C99.4209 77.7657 106.158 87.3722 107.871 92.8442C115.635 114.732 143.078 108.044 155.829 101.964C143.84 106.828 129.682 109.101 124.999 97.1003C121.839 89.0051 134.705 87.3722 137.559 91.0202C139.843 93.9386 144.601 93.4522 146.694 92.8442Z" fill="#0F1A2C"/>
<path d="M229.632 121.072C228.769 121.71 227.906 122.347 227.044 122.985C212.115 104.398 187.753 93.9936 163.838 93.4141C158.193 93.2606 152.526 93.6198 146.926 94.4365L147.143 94.3895C143.66 95.2405 139.304 95.522 136.292 92.0118C133.52 89.1894 123.683 91.525 126.498 96.5152C130.408 107.671 145.34 104.609 155.224 100.473L156.522 103.417C147.94 107.373 138.597 109.902 128.939 109.456C119.338 109.357 109.209 102.98 106.354 93.3822L106.335 93.3249C103.962 85.145 94.6639 80.7075 86.7779 84.6081L87.1158 84.4217C84.6762 86.1779 82.7327 88.7957 82.5379 91.5334C82.2948 94.2738 83.9149 96.9862 86.1656 99.1232C90.7651 103.413 97.0542 106.102 103.271 108.352L102.506 111.462C82.4228 109.082 67.4702 87.9178 71.4471 68.3241L71.4417 68.6744C71.1546 66.1172 69.0887 64.2638 66.3476 64.6536C62.7136 65.1655 58.9335 68.3218 57.5088 71.9854C55.9776 75.7183 56.9169 80.0518 59.1028 83.7302L56.4032 85.4758C48.4461 74.8387 50.4947 60.9334 52.62 49.3866L52.6504 49.2526C53.6669 45.5141 53.583 40.8366 50.931 38.8965C48.2527 36.9184 43.7269 37.7549 39.8693 39.0417C34.301 40.6 33.4093 47.4034 34.5601 53.2213C35.6504 59.1768 38.0726 64.9706 40.926 70.4835C46.7775 81.1877 54.2124 92.5581 64.5298 98.0478L63.3074 101.025C42.5354 91.8943 20.5964 74.8298 20.0505 49.6758L20.0676 49.9094C20.7177 37.9457 29.0373 31.2756 32.7636 22.2397C34.6761 18.0568 35.74 12.9917 34.215 8.99909C32.744 4.94576 28.0107 3.32945 23.3249 3.25184C9.23187 2.80568 3.91318 20.4621 3.28507 33.3167L3.27393 33.457C1.42876 66.4718 31.323 92.012 61.0631 102.895L59.9966 105.93C50.1385 102.988 39.4826 101.87 29.17 102.537C24.0679 102.951 18.8008 103.831 14.7203 106.386C10.4627 108.837 9.67148 113.818 11.7313 118.382L11.5901 118.111C17.6852 127.441 31.404 124.932 39.5021 117.726C55.2423 105.966 76.008 107.397 93.5393 112.599L93.0264 115.734C82.3259 115.832 71.3844 117.429 61.4753 121.339C51.6929 125.011 42.5524 133.168 43.8177 143.794L43.7851 143.572C44.2679 145.803 45.5264 147.913 47.3059 148.696C49.0679 149.526 51.407 149.025 53.5401 147.942C57.8555 145.705 61.5691 141.894 64.9755 138L65.0282 137.942C70.0583 132.27 74.6219 124.824 81.7635 120.24C88.7931 115.491 97.3517 113.699 105.587 113.731L111.092 113.726L106.453 116.696C98.2362 122.037 90.4859 128.447 84.3221 136C78.3052 143.224 73.541 153.877 79.9964 161.135L79.9389 161.069C82.072 163.434 86.1084 165.207 88.028 163.724C90.0606 162.212 90.1374 157.953 89.7155 154.44L89.7045 154.253C90.5533 139.606 91.6624 119.593 109.268 113.762C118.778 111.91 128.265 110.376 138.13 110.083L138.772 113.168C131.628 116.401 124.888 121.118 119.519 126.838C114.038 132.25 110.917 141.217 118.429 144.984L118.153 144.846C126.702 147.919 134.991 139.897 137.763 131.198C141.269 121.933 145.717 112.465 153.795 105.786C161.853 98.7465 174.124 98.7359 183.281 102.91L186.316 104.166L183.458 105.796C177.558 109.303 170.25 114.712 170.654 120.72C171.019 123.255 173.653 125.291 176.513 126.66L176.32 126.582C181.462 128.101 186.905 123.694 189.2 118.305L189.223 118.258C192.866 110.822 202.207 107.303 209.832 109.365C217.53 111.175 223.842 115.846 229.418 120.836C228.698 121.631 227.978 122.426 227.257 123.221C221.912 118.412 215.864 114.065 209.13 112.506C202.473 110.765 195.105 113.7 192.09 119.719L192.113 119.672C189.561 125.604 183.048 131.826 175.304 129.635L175.111 129.557C171.97 127.996 168.258 125.649 167.475 121.224C167.431 111.391 175.657 107.065 181.868 102.997L182.046 105.882C173.363 102.026 163.01 102.099 155.813 108.292C148.56 114.25 144.167 123.297 140.781 132.315C137.919 141.47 128.284 151.824 117.001 147.851L116.724 147.714C112.946 145.626 109.629 140.684 110.737 135.927C111.623 131.324 114.343 127.783 117.149 124.662C122.949 118.508 129.814 113.707 137.488 110.217L138.13 113.301C128.802 113.576 119.238 115.091 109.899 116.918C95.9417 120.97 93.4244 140.194 92.9227 154.253L92.9118 154.065C93.1661 157.913 94.0544 162.635 89.9206 166.327C84.9569 169.253 80.4752 166.126 77.5673 163.245L77.5098 163.178C69.5239 153.993 75.6284 141.328 81.8143 133.983C88.3166 126.03 96.2152 119.521 104.721 113.984L105.587 116.95C89.1987 116.023 76.8237 126.732 67.3569 140.163L67.4096 140.105C63.8472 144.146 60.0822 148.145 54.9808 150.82C52.4762 152.075 49.1428 153.053 45.976 151.627C42.8502 150.176 41.284 147.119 40.6414 144.261L40.6089 144.04C39.1012 131.611 50.0902 122.057 60.2702 118.355C70.7584 114.231 81.914 112.627 93.0264 112.515L92.5135 115.65C75.8338 110.623 55.5971 109.541 41.4988 120.25C33.1934 127.859 16.5051 131.539 8.89186 119.865L8.7506 119.595C7.69145 116.976 6.96942 113.967 7.64215 110.87C8.28378 107.766 10.5243 105.223 12.974 103.682C17.9905 100.585 23.5494 99.7921 28.9282 99.3278C39.766 98.643 50.525 99.7597 60.9697 102.863L59.9032 105.897C29.6207 94.7014 -1.79481 68.8254 0.0799735 33.0624L0.0688346 33.2027C0.415255 25.9143 1.93424 18.6834 5.3017 12.0524C8.43791 5.49575 15.4385 -0.515329 23.42 0.0350035C28.4704 0.0761581 35.0618 2.01281 37.2078 7.81574C39.2069 13.3212 37.7999 18.8261 35.6767 23.6075C31.6609 32.7564 23.492 41.0336 23.2517 49.4422L23.2688 49.6758C23.5628 72.4972 44.4829 89.3276 64.5102 98.0398L63.2877 101.017C51.1667 94.4544 44.294 83.1114 38.0726 71.9717C35.1213 66.2559 32.5871 60.2735 31.391 53.7819C30.8347 50.5431 30.5799 47.087 31.547 43.6419C32.415 40.1912 35.3649 37.022 38.8479 35.9898C43.0396 34.7177 48.1274 33.1475 52.8606 36.3209C57.3713 40.0148 56.8222 45.7558 55.7554 50.0991L55.7858 49.9651C53.6369 61.5523 51.9486 74.2201 59.0212 83.6041L56.3217 85.3497C50.2271 77.1974 55.046 62.9805 66.0375 61.4503C69.9663 60.6798 74.4652 64.2659 74.6458 68.3736L74.6404 68.7239C71.0431 87.2191 84.5276 105.91 102.959 108.275L102.194 111.385C95.7719 109.035 89.2623 106.371 83.9353 101.443C81.3606 99.0002 78.9895 95.4118 79.3291 91.2869C79.6678 87.2021 82.273 83.9663 85.2347 81.8105L85.5726 81.6241C89.9511 79.8104 95.3521 79.1298 100.015 81.3255C104.652 83.4892 107.857 87.6731 109.406 92.3635L109.387 92.3062C115.258 110.91 139.951 107.811 155.137 100.512L156.434 103.455C150.903 105.662 145.07 107.49 138.819 107.503C132.668 107.802 125.52 103.964 123.5 97.6853C122.816 95.9951 122.549 93.711 123.62 91.7789C124.668 89.868 126.475 88.8262 128.177 88.2391C131.61 87.301 135.401 86.6997 138.827 90.0285C140.147 91.8216 143.591 92.0325 146.245 91.299L146.462 91.2519C152.234 90.4101 158.086 90.0382 163.925 90.1971C188.727 90.8593 213.757 101.358 229.632 121.072ZM78.3886 103.831C79.3928 104.208 80.397 104.585 81.4013 104.962C81.2101 105.564 80.5298 106.077 80.0946 106.177C79.6372 106.309 79.3413 106.284 79.0787 106.262C78.5772 106.202 78.259 106.086 77.9419 105.968C77.3291 105.727 76.833 105.452 76.3503 105.167C70.5904 101.401 66.194 96.7386 61.6141 92.1428C59.6345 90.1061 57.7977 87.8769 56.3217 85.3497L59.0212 83.6041C64.1247 90.6804 70.8421 96.6641 78.1899 101.461C79.0174 101.995 79.8569 102.512 80.7045 103.006C80.1648 103.933 79.6251 104.86 79.0854 105.787C78.1907 105.266 77.3102 104.723 76.4445 104.165C68.774 99.1502 61.8271 92.9836 56.4032 85.4758L59.1028 83.7302C60.398 85.9507 62.0729 87.9991 63.9197 89.8976C68.3783 94.3992 72.9776 99.1388 77.9976 102.402C78.3833 102.632 78.7765 102.84 79.1014 102.966C79.2579 103.028 79.4115 103.064 79.4172 103.061C79.4129 103.065 79.367 103.04 79.1533 103.099C78.9564 103.132 78.4947 103.471 78.3886 103.831Z" fill="#0F1A2C"/>
</svg>
