<svg width="1819" height="739" viewBox="0 0 1819 739" fill="none" xmlns="http://www.w3.org/2000/svg">
<path d="M116.643 509.397C126.576 441.506 90.2189 395.947 70.7987 381.654C101.362 415.243 86.7168 434.955 75.5741 440.612C60.2927 447.759 59.6559 459.074 61.2478 463.838C72.7088 487.421 90.8555 466.518 98.4962 453.119C113.778 489.744 87.0352 509.397 55.5172 521.01C30.3029 530.3 29.7298 547.511 32.5951 554.955C48.2008 579.852 77.8026 543.938 87.0352 522.796C87.0352 528.156 85.8891 544.593 81.3046 567.461C76.7202 590.33 38.644 596.047 20.1789 596.047C-4.27133 593.188 0.547484 609.107 7.76277 615.699C32.213 635.709 66.9783 596.047 81.3046 573.714C81.3046 613.734 55.8035 624.191 44.0562 635.352C15.0215 660.365 26.8645 670.786 36.4154 672.871C73.8549 675.729 83.2148 621.059 83.2148 593.367C88.9454 610.34 95.44 650.538 75.5741 675.551C55.7083 700.563 67.2967 717.536 75.5741 722.896C110.057 736.877 107.41 672.275 98.4963 644.285C129.823 725.04 186.046 739.273 210.242 736.295C227.115 735.7 260.67 728.077 259.906 702.35C259.142 676.623 237.303 680.315 226.478 685.377C210.466 692.865 194.642 706.519 184.454 705.03C143.194 705.03 115.051 660.96 106.137 638.925C116.643 663.938 193.05 708.603 203.556 677.337C211.961 652.325 194.324 651.432 184.454 654.111C162.735 658.065 145.369 659.787 129.688 648.621C126.472 646.756 123.072 644.169 119.508 640.712C98.8783 620.702 96.9044 614.508 98.4963 613.913C104.639 624.423 115.747 638.693 129.688 648.621C149.738 660.25 162.619 643.82 163.442 635.352C164.206 627.491 158.03 624.93 154.847 624.632C109.002 630.35 92.4473 596.047 89.9004 578.181C105.946 623.203 124.602 614.211 131.924 604.087C140.329 583.362 125.239 572.821 116.643 570.141C82.2597 557.992 92.7657 515.054 102.317 495.104C94.6759 513.863 91.1064 536.014 109.957 543.342C122.674 548.285 125.239 528.156 119.508 523.689C114.924 520.116 115.688 512.672 116.643 509.397Z" fill="#52667E"/>
<path d="M71.9253 380.124C71.1742 381.144 70.4231 382.165 69.672 383.185C99.0715 406.704 115.479 444.999 116.377 482.658C116.612 491.494 116.045 500.361 114.762 509.121L114.818 508.865C113.501 514.157 113.164 520.813 118.34 525.189C123.283 530.121 119.32 546.105 110.646 541.571C92.5463 535.177 97.576 511.285 104.077 495.821L100.602 494.283C94.4263 507.62 90.4715 522.199 91.1756 537.17C91.3621 552.075 101.195 567.525 116.01 571.933L116.077 571.956C129.2 575.675 136.45 590.842 130.163 603.372L130.384 602.973C127.547 606.892 123.318 610.055 118.762 610.392C114.194 610.795 109.765 608.129 106.345 604.547C99.4766 597.218 95.249 587.322 91.6908 577.543L88.0188 578.449C91.7847 609.654 124.594 632.651 155.082 626.519L154.67 626.525C158.981 626.953 162.237 630.646 161.551 635.168C159.476 648.376 142.141 655.292 130.641 646.977L128.585 650.169C145.069 662.453 166.647 659.308 184.795 655.981L184.952 655.946C190.933 654.35 198.469 654.349 201.875 658.843C205.231 663.416 203.776 670.625 201.754 676.732C199.158 685.896 187.942 687.277 178.781 685.454C169.331 683.73 160.198 679.924 151.501 675.444C134.606 666.221 116.742 654.707 107.889 638.189L104.375 639.638C118.657 672.061 145.483 706.147 184.454 706.93L184.179 706.91C202.259 705.98 213.07 692.985 227.283 687.099C233.967 684.068 241.992 682.339 248.559 684.802C255.271 687.217 257.894 694.986 258.006 702.406C258.589 725.19 230.427 733.376 210.175 734.396L210.01 734.409C157.721 737.318 117.457 690.338 100.268 643.598L96.6852 644.862C101.34 660.406 103.098 677.116 102.039 693.365C101.376 701.407 100.002 709.713 95.8719 716.262C91.9306 723.145 83.5114 724.443 76.2883 721.134L76.6072 721.3C61.508 711.496 65.6672 689.428 77.0625 676.733C95.3244 652.449 93.1587 620.022 85.0156 592.759L81.3141 593.367C81.1573 610.208 78.6401 627.391 72.4439 643.012C66.6561 658.409 53.5499 673.001 36.5601 670.976L36.8207 671.014C33.2021 670.229 29.7035 668.206 28.3397 665.164C26.9165 662.139 27.7947 658.283 29.5318 654.872C33.1343 647.965 39.156 642.149 45.2967 636.792L45.3653 636.73C54.3894 628.766 65.9287 621.734 73.0653 610.678C80.4485 599.809 83.256 586.538 83.2053 573.714L83.2096 567.233L79.7048 572.688C71.2668 585.617 61.167 597.781 49.2196 607.487C37.8389 616.931 20.7417 624.616 8.96652 614.229L9.04477 614.296C5.22941 610.812 2.17691 604.392 4.80195 600.814C7.6197 597.236 14.3834 597.309 19.9582 597.935L20.1789 597.948C43.0505 596.673 74.2945 594.738 83.1682 567.835C86.073 552.989 88.4794 538.131 88.9359 522.796L85.2934 522.035C80.1576 533.33 72.7222 543.908 63.6492 552.387C59.094 556.513 53.854 560.272 48.197 561.306C42.4943 562.498 37.2759 559.116 34.2055 553.946L34.3689 554.272C29.3639 540.347 42.4563 527.136 56.1744 522.793C70.653 517.34 85.4187 510.412 95.7863 497.948C106.703 485.524 106.761 466.635 100.25 452.387L98.7665 448.818L96.8451 452.177C91.2273 461.471 82.9575 473.04 72.7994 472.525C68.4339 471.898 65.1542 467.558 62.9573 463.007L63.0505 463.236C60.5328 454.682 67.8268 445.966 76.3793 442.334L76.4346 442.307C87.8136 436.75 93.2654 422.502 90.0779 410.742C87.2799 398.87 80.0016 389.049 72.2045 380.375C71.2673 381.228 70.3301 382.081 69.3929 382.934C76.9756 391.335 83.8698 400.845 86.3686 411.573C89.1712 422.184 84.4249 434.093 74.7136 438.918L74.7689 438.891C65.5833 442.823 56.129 452.793 59.4451 464.441L59.5383 464.669C61.9601 469.551 65.6285 475.181 72.2273 476.283C86.8537 476.364 93.8716 463.726 100.147 454.06L96.7421 453.85C102.872 467.539 102.746 484.143 92.8335 495.554C83.3195 507.05 69.0475 513.914 54.8601 519.226C40.6114 523.673 24.7473 538.462 30.8213 555.638L30.9846 555.964C34.242 561.78 41.637 566.699 48.843 565.052C55.838 563.723 61.3583 559.544 66.2131 555.193C75.7999 546.206 83.3357 535.48 88.777 523.557L85.1345 522.796C84.7001 537.495 82.3168 552.444 79.441 567.088C72.6871 589.669 42.3562 593.286 20.1789 594.146L20.3997 594.159C14.4269 593.731 7.1378 592.524 1.73977 598.561C-2.61762 605.748 2.05682 612.708 6.48076 617.103L6.559 617.17C20.6058 629.355 40.0664 620.099 51.5951 610.455C64.0166 600.35 74.2335 588.01 82.9044 574.741L79.404 573.714C80.9391 599.533 63.6449 619.358 42.747 633.974L42.8156 633.912C36.5009 639.453 30.257 645.328 26.1355 653.165C24.1941 657.013 22.7457 662.054 24.8825 666.745C27.0433 671.379 31.6548 673.754 36.0102 674.728L36.2707 674.766C55.3703 677.079 70.1401 660.316 75.9658 644.442C82.4181 628.134 84.9421 610.697 85.1155 593.367L81.414 593.975C89.3475 620.231 91.1006 652.023 74.0858 674.369C62.212 687.301 56.6684 712.907 74.541 724.491L74.8599 724.657C78.9003 726.285 83.4854 727.367 88.1503 726.368C92.8208 725.419 96.6793 722.08 99.0563 718.338C103.835 710.679 105.106 702.023 105.83 693.653C106.909 676.78 105.153 659.948 100.307 643.708L96.7242 644.973C114.283 692.359 154.958 741.129 210.474 738.182L210.309 738.195C231.148 736.991 261.824 729.267 261.806 702.293C261.741 694.44 258.718 684.459 249.946 681.263C241.602 678.248 233.062 680.377 225.673 683.655C211.324 689.882 198.625 702.698 184.729 703.149L184.454 703.129C148.222 702.638 121.686 669.751 107.899 638.213L104.385 639.661C114.511 658.313 132.339 669.159 149.749 678.817C158.685 683.412 168.041 687.351 178.122 689.198C187.485 691.199 201.911 689.798 205.358 677.943C207.362 671.442 209.693 663.555 204.906 656.548C199.418 649.874 190.652 650.624 183.956 652.277L184.114 652.242C165.92 655.597 145.793 658.317 130.79 647.072L128.734 650.265C141.344 659.608 162.944 652.224 165.334 635.536C166.474 629.595 161.15 623.038 155.023 622.74L154.611 622.746C125.408 628.435 95.5237 607.15 91.7821 577.913L88.1101 578.819C91.7864 588.841 95.9861 599.001 103.612 607.19C107.396 611.155 112.864 614.7 119.055 614.182C125.192 613.676 130.153 609.738 133.464 605.2L133.686 604.801C136.499 598.034 137.524 589.765 134.156 582.665C130.845 575.605 124.392 570.687 117.209 568.327L117.276 568.349C87.521 558.958 92.5009 519.757 104.031 495.924L100.556 494.387C97.105 502.998 94.2572 512.083 94.2435 521.73C93.8089 531.247 99.6601 542.013 109.269 545.114C111.829 546.142 115.171 546.518 117.997 544.968C120.798 543.451 122.384 540.768 123.277 538.19C124.744 533.015 125.516 527.095 120.677 522.19C117.532 519.805 117.292 514.241 118.468 509.929L118.524 509.672C119.836 500.708 120.419 491.622 120.177 482.557C119.182 443.845 102.657 404.755 71.9253 380.124ZM99.1623 615.693C98.7183 614.506 98.2743 613.32 97.8303 612.133C97.076 612.372 96.432 613.216 96.2993 613.779C96.1286 614.368 96.1578 614.767 96.1898 615.128C96.2718 615.819 96.4398 616.286 96.615 616.752C96.9712 617.657 97.3908 618.414 97.8286 619.151C103.652 628.023 110.987 634.937 118.185 642.076C121.359 645.149 124.826 647.992 128.734 650.265L130.79 647.072C119.6 639.032 110.162 628.48 102.581 616.915C101.736 615.612 100.918 614.29 100.137 612.954C99.0432 613.593 97.9493 614.233 96.8553 614.872C97.6689 616.264 98.5172 617.635 99.3909 618.983C107.231 630.929 116.885 641.752 128.585 650.169L130.641 646.977C127.095 644.916 123.842 642.264 120.832 639.348C113.745 632.351 106.318 625.198 101.09 617.198C100.718 616.576 100.379 615.941 100.159 615.376C100.05 615.101 99.9781 614.828 99.9697 614.725C99.9603 614.681 99.9897 614.688 99.9332 614.895C99.9075 615.084 99.5373 615.586 99.1623 615.693Z" fill="#52667E"/>
<path d="M116.643 228.912C126.576 296.803 90.2189 342.362 70.7987 356.654C101.362 323.066 86.7168 303.354 75.5741 297.697C60.2927 290.55 59.6559 279.235 61.2478 274.471C72.7088 250.888 90.8555 271.791 98.4962 285.19C113.778 248.565 87.0352 228.912 55.5172 217.299C30.3029 208.009 29.7298 190.798 32.5951 183.354C48.2008 158.457 77.8026 194.371 87.0352 215.513C87.0352 210.153 85.8891 193.716 81.3046 170.848C76.7202 147.979 38.644 142.262 20.1789 142.262C-4.27133 145.121 0.547484 129.201 7.76277 122.609C32.213 102.599 66.9783 142.262 81.3046 164.595C81.3046 124.575 55.8035 114.118 44.0562 102.957C15.0215 77.9443 26.8645 67.5225 36.4154 65.4381C73.8549 62.5795 83.2148 117.25 83.2148 144.942C88.9454 127.969 95.44 87.7706 75.5741 62.7582C55.7083 37.7457 67.2967 20.773 75.5741 15.4132C110.057 1.43148 107.41 66.0336 98.4963 94.0238C129.823 13.2693 186.046 -0.963964 210.242 2.0137C227.115 2.60925 260.67 10.2321 259.906 35.9592C259.142 61.6863 237.303 57.9939 226.478 52.9319C210.466 45.4439 194.642 31.7904 184.454 33.2792C143.194 33.2792 115.051 77.3488 106.137 99.3836C116.643 74.3711 193.05 29.706 203.556 60.9716C211.961 85.984 194.324 86.8773 184.454 84.1974C162.735 80.2439 145.369 78.5214 129.688 89.6882C126.472 91.5533 123.072 94.14 119.508 97.597C98.8783 117.607 96.9044 123.8 98.4963 124.396C104.639 113.886 115.747 99.6159 129.688 89.6882C149.738 78.0591 162.619 94.4886 163.442 102.957C164.206 110.818 158.03 113.379 154.847 113.676C109.002 107.959 92.4473 142.262 89.9004 160.128C105.946 115.106 124.602 124.098 131.924 134.222C140.329 154.947 125.239 165.488 116.643 168.168C82.2597 180.317 92.7657 223.255 102.317 243.205C94.6759 224.446 91.1064 202.295 109.957 194.967C122.674 190.023 125.239 210.153 119.508 214.62C114.924 218.193 115.688 225.637 116.643 228.912Z" fill="#52667E"/>
<path d="M71.9253 358.185C71.1742 357.165 70.4231 356.144 69.672 355.124C99.0715 331.604 115.479 293.31 116.377 255.651C116.612 246.815 116.045 237.948 114.762 229.187L114.818 229.444C113.501 224.152 113.164 217.496 118.34 213.12C123.283 208.188 119.32 192.204 110.646 196.738C92.5463 203.132 97.576 227.024 104.077 242.488L100.602 244.026C94.4263 230.689 90.4715 216.11 91.1756 201.139C91.3621 186.234 101.195 170.783 116.01 166.376L116.077 166.353C129.2 162.634 136.45 147.467 130.163 134.937L130.384 135.336C127.547 131.416 123.318 128.253 118.762 127.917C114.194 127.514 109.765 130.18 106.345 133.762C99.4766 141.091 95.249 150.987 91.6908 160.766L88.0188 159.86C91.7847 128.655 124.594 105.658 155.082 111.79L154.67 111.784C158.981 111.356 162.237 107.663 161.551 103.141C159.476 89.9328 142.141 83.0166 130.641 91.3324L128.585 88.14C145.069 75.8557 166.647 79.0007 184.795 82.3275L184.952 82.3632C190.933 83.9593 198.469 83.96 201.875 79.4661C205.231 74.8927 203.776 67.6839 201.754 61.577C199.158 52.4131 187.942 51.0315 178.781 52.8551C169.331 54.5784 160.198 58.3851 151.501 62.8654C134.606 72.0875 116.742 83.6023 107.889 100.12L104.375 98.6708C118.657 66.248 145.483 32.1618 184.454 31.3786L184.179 31.3986C202.259 32.3293 213.07 45.324 227.283 51.2102C233.967 54.2412 241.992 55.9701 248.559 53.5066C255.271 51.0917 257.894 43.3228 258.006 35.9027C258.589 13.1191 230.427 4.93313 210.175 3.9132L210.01 3.90014C157.721 0.990472 117.457 47.9709 100.268 94.7112L96.6852 93.447C101.34 77.9025 103.098 61.1931 102.039 44.944C101.376 36.9023 100.002 28.5955 95.8719 22.0468C91.9306 15.1643 83.5114 13.8662 76.2883 17.1746L76.6072 17.0086C61.508 26.8125 65.6672 48.8814 77.0625 61.5761C95.3244 85.8602 93.1587 118.287 85.0156 145.55L81.3141 144.942C81.1573 128.101 78.6401 110.918 72.4439 95.2974C66.6561 79.8997 53.5499 65.3082 36.5601 67.3333L36.8207 67.2951C33.2021 68.0801 29.7035 70.1027 28.3397 73.1447C26.9165 76.1699 27.7947 80.0262 29.5318 83.4368C33.1343 90.3437 39.156 96.1603 45.2967 101.517L45.3653 101.579C54.3894 109.543 65.9287 116.575 73.0653 127.631C80.4485 138.5 83.256 151.771 83.2053 164.595L83.2096 171.076L79.7048 165.621C71.2668 152.692 61.167 140.528 49.2196 130.822C37.8389 121.378 20.7417 113.692 8.96652 124.08L9.04477 124.013C5.22941 127.497 2.17691 133.917 4.80195 137.495C7.6197 141.073 14.3834 141 19.9582 140.374L20.1789 140.361C43.0505 141.635 74.2945 143.571 83.1682 170.474C86.073 185.32 88.4794 200.178 88.9359 215.513L85.2934 216.273C80.1576 204.979 72.7222 194.401 63.6492 185.922C59.094 181.796 53.854 178.037 48.197 177.003C42.4943 175.811 37.2759 179.193 34.2055 184.363L34.3689 184.037C29.3639 197.962 42.4563 211.173 56.1744 215.516C70.653 220.969 85.4187 227.897 95.7863 240.361C106.703 252.785 106.761 271.674 100.25 285.922L98.7665 289.491L96.8451 286.132C91.2273 276.838 82.9575 265.269 72.7994 265.784C68.4339 266.41 65.1542 270.751 62.9573 275.301L63.0505 275.073C60.5328 283.627 67.8268 292.343 76.3793 295.975L76.4346 296.002C87.8136 301.559 93.2654 315.807 90.0779 327.567C87.2799 339.439 80.0016 349.26 72.2045 357.934C71.2673 357.081 70.3301 356.228 69.3929 355.375C76.9756 346.974 83.8698 337.464 86.3686 326.736C89.1712 316.124 84.4249 304.216 74.7136 299.391L74.7689 299.418C65.5833 295.486 56.129 285.516 59.4451 273.868L59.5383 273.64C61.9601 268.758 65.6285 263.128 72.2273 262.026C86.8537 261.945 93.8716 274.583 100.147 284.249L96.7421 284.458C102.872 270.77 102.746 254.166 92.8335 242.755C83.3195 231.259 69.0475 224.395 54.8601 219.083C40.6114 214.636 24.7473 199.846 30.8213 182.671L30.9846 182.344C34.242 176.528 41.637 171.61 48.843 173.257C55.838 174.586 61.3583 178.765 66.2131 183.116C75.7999 192.103 83.3357 202.829 88.777 214.752L85.1345 215.513C84.7001 200.814 82.3168 185.865 79.441 171.221C72.6871 148.64 42.3562 145.023 20.1789 144.163L20.3997 144.15C14.4269 144.578 7.1378 145.785 1.73977 139.748C-2.61762 132.561 2.05682 125.601 6.48076 121.206L6.559 121.139C20.6058 108.954 40.0664 118.21 51.5951 127.854C64.0166 137.959 74.2335 150.299 82.9044 163.568L79.404 164.595C80.9391 138.776 63.6449 118.951 42.747 104.335L42.8156 104.397C36.5009 98.8564 30.257 92.9808 26.1355 85.1444C24.1941 81.2956 22.7457 76.2546 24.8825 71.5641C27.0433 66.9303 31.6548 64.5544 36.0102 63.5811L36.2707 63.543C55.3703 61.2302 70.1401 77.9926 75.9658 93.8669C82.4181 110.175 84.9421 127.612 85.1155 144.942L81.414 144.334C89.3475 118.078 91.1006 86.2856 74.0858 63.9403C62.212 51.0082 56.6684 25.4015 74.541 13.8178L74.8599 13.6518C78.9003 12.0235 83.4854 10.9418 88.1503 11.9405C92.8208 12.8903 96.6793 16.2286 99.0563 19.9708C103.835 27.6299 105.106 36.2856 105.83 44.6558C106.909 61.5289 105.153 78.3606 100.307 94.6005L96.7242 93.3364C114.283 45.9498 154.958 -2.82035 210.474 0.127255L210.309 0.114223C231.148 1.3182 261.824 9.04233 261.806 36.0156C261.741 43.8689 258.718 53.8503 249.946 57.0461C241.602 60.0609 233.062 57.9322 225.673 54.6536C211.324 48.4269 198.625 35.6106 184.729 35.1599L184.454 35.1799C148.222 35.6707 121.686 68.5575 107.899 100.096L104.385 98.6475C114.511 79.9963 132.339 69.1504 149.749 59.4918C158.685 54.8965 168.041 50.9583 178.122 49.1114C187.485 47.1103 201.911 48.5113 205.358 60.3662C207.362 66.8669 209.693 74.7541 204.906 81.7609C199.418 88.4349 190.652 87.6847 183.956 86.0317L184.114 86.0674C165.92 82.7123 145.793 79.9921 130.79 91.2365L128.734 88.0441C141.344 78.7013 162.944 86.0848 165.334 102.773C166.474 108.714 161.15 115.271 155.023 115.569L154.611 115.562C125.408 109.874 95.5237 131.159 91.7821 160.396L88.1101 159.49C91.7864 149.468 95.9861 139.308 103.612 131.119C107.396 127.154 112.864 123.608 119.055 124.127C125.192 124.633 130.153 128.571 133.464 133.108L133.686 133.508C136.499 140.275 137.524 148.544 134.156 155.644C130.845 162.704 124.392 167.622 117.209 169.982L117.276 169.96C87.521 179.35 92.5009 218.552 104.031 242.384L100.556 243.922C97.105 235.311 94.2572 226.226 94.2435 216.579C93.8089 207.062 99.6601 196.296 109.269 193.195C111.829 192.167 115.171 191.791 117.997 193.34C120.798 194.858 122.384 197.541 123.277 200.119C124.744 205.294 125.516 211.214 120.677 216.119C117.532 218.504 117.292 224.068 118.468 228.38L118.524 228.637C119.836 237.6 120.419 246.687 120.177 255.752C119.182 294.464 102.657 333.553 71.9253 358.185ZM99.1623 122.616C98.7183 123.803 98.2743 124.989 97.8303 126.176C97.076 125.936 96.432 125.092 96.2993 124.53C96.1286 123.941 96.1578 123.542 96.1898 123.181C96.2718 122.49 96.4398 122.023 96.615 121.557C96.9712 120.652 97.3908 119.895 97.8286 119.158C103.652 110.286 110.987 103.372 118.185 96.2327C121.359 93.1597 124.826 90.3171 128.734 88.0441L130.79 91.2365C119.6 99.2766 110.162 109.829 102.581 121.394C101.736 122.697 100.918 124.019 100.137 125.355C99.0432 124.716 97.9493 124.076 96.8553 123.437C97.6689 122.045 98.5172 120.674 99.3909 119.326C107.231 107.38 116.885 96.5567 128.585 88.14L130.641 91.3324C127.095 93.3931 123.842 96.0447 120.832 98.9613C113.745 105.958 106.318 113.111 101.09 121.11C100.718 121.733 100.379 122.368 100.159 122.933C100.05 123.208 99.9781 123.481 99.9697 123.584C99.9603 123.628 99.9897 123.621 99.9332 123.414C99.9075 123.225 99.5373 122.723 99.1623 122.616Z" fill="#52667E"/>
<path d="M1702.2 509.397C1692.26 441.506 1728.62 395.947 1748.04 381.654C1717.48 415.243 1732.12 434.955 1743.26 440.612C1758.55 447.759 1759.18 459.074 1757.59 463.838C1746.13 487.421 1727.98 466.518 1720.34 453.119C1705.06 489.744 1731.8 509.397 1763.32 521.01C1788.54 530.3 1789.11 547.511 1786.24 554.955C1770.64 579.852 1741.04 543.938 1731.8 522.796C1731.8 528.156 1732.95 544.593 1737.53 567.461C1742.12 590.33 1780.19 596.047 1798.66 596.047C1823.11 593.188 1818.29 609.107 1811.08 615.699C1786.63 635.709 1751.86 596.047 1737.53 573.714C1737.53 613.734 1763.03 624.191 1774.78 635.352C1803.82 660.365 1791.97 670.786 1782.42 672.871C1744.98 675.729 1735.62 621.059 1735.62 593.367C1729.89 610.34 1723.4 650.538 1743.26 675.551C1763.13 700.563 1751.54 717.536 1743.26 722.896C1708.78 736.877 1711.43 672.275 1720.34 644.285C1689.02 725.04 1632.79 739.273 1608.6 736.295C1591.72 735.7 1558.17 728.077 1558.93 702.35C1559.7 676.623 1581.54 680.315 1592.36 685.377C1608.37 692.865 1624.2 706.519 1634.38 705.03C1675.64 705.03 1703.79 660.96 1712.7 638.925C1702.2 663.938 1625.79 708.603 1615.28 677.337C1606.88 652.325 1624.51 651.432 1634.38 654.111C1656.1 658.065 1673.47 659.787 1689.15 648.621C1692.37 646.756 1695.77 644.169 1699.33 640.712C1719.96 620.702 1721.93 614.508 1720.34 613.913C1714.2 624.423 1703.09 638.693 1689.15 648.621C1669.1 660.25 1656.22 643.82 1655.4 635.352C1654.63 627.491 1660.81 624.93 1663.99 624.632C1709.84 630.35 1726.39 596.047 1728.94 578.181C1712.89 623.203 1694.24 614.211 1686.91 604.087C1678.51 583.362 1693.6 572.821 1702.2 570.141C1736.58 557.992 1726.07 515.054 1716.52 495.104C1724.16 513.863 1727.73 536.014 1708.88 543.342C1696.16 548.285 1693.6 528.156 1699.33 523.689C1703.91 520.116 1703.15 512.672 1702.2 509.397Z" fill="#52667E"/>
<path d="M1746.91 380.124C1747.66 381.144 1748.42 382.165 1749.17 383.185C1719.77 406.704 1703.36 444.999 1702.46 482.658C1702.23 491.494 1702.79 500.361 1704.08 509.121L1704.02 508.865C1705.34 514.157 1705.67 520.813 1700.5 525.189C1695.55 530.121 1699.52 546.105 1708.19 541.571C1726.29 535.177 1721.26 511.285 1714.76 495.821L1718.24 494.283C1724.41 507.62 1728.37 522.199 1727.66 537.17C1727.48 552.075 1717.64 567.525 1702.83 571.933L1702.76 571.956C1689.64 575.675 1682.39 590.842 1688.68 603.372L1688.45 602.973C1691.29 606.892 1695.52 610.055 1700.08 610.392C1704.64 610.795 1709.07 608.129 1712.49 604.547C1719.36 597.218 1723.59 587.322 1727.15 577.543L1730.82 578.449C1727.05 609.654 1694.24 632.651 1663.76 626.519L1664.17 626.525C1659.86 626.953 1656.6 630.646 1657.29 635.168C1659.36 648.376 1676.7 655.292 1688.2 646.977L1690.25 650.169C1673.77 662.453 1652.19 659.308 1634.04 655.981L1633.89 655.946C1627.9 654.35 1620.37 654.349 1616.96 658.843C1613.61 663.416 1615.06 670.625 1617.08 676.732C1619.68 685.896 1630.9 687.277 1640.06 685.454C1649.51 683.73 1658.64 679.924 1667.34 675.444C1684.23 666.221 1702.1 654.707 1710.95 638.189L1714.46 639.638C1700.18 672.061 1673.36 706.147 1634.38 706.93L1634.66 706.91C1616.58 705.98 1605.77 692.985 1591.55 687.099C1584.87 684.068 1576.85 682.339 1570.28 684.802C1563.57 687.217 1560.94 694.986 1560.83 702.406C1560.25 725.19 1588.41 733.376 1608.66 734.396L1608.83 734.409C1661.12 737.318 1701.38 690.338 1718.57 643.598L1722.15 644.862C1717.5 660.406 1715.74 677.116 1716.8 693.365C1717.46 701.407 1718.84 709.713 1722.97 716.262C1726.91 723.145 1735.33 724.443 1742.55 721.134L1742.23 721.3C1757.33 711.496 1753.17 689.428 1741.78 676.733C1723.51 652.449 1725.68 620.022 1733.82 592.759L1737.52 593.367C1737.68 610.208 1740.2 627.391 1746.39 643.012C1752.18 658.409 1765.29 673.001 1782.28 670.976L1782.02 671.014C1785.64 670.229 1789.13 668.206 1790.5 665.164C1791.92 662.139 1791.04 658.283 1789.31 654.872C1785.7 647.965 1779.68 642.149 1773.54 636.792L1773.47 636.73C1764.45 628.766 1752.91 621.734 1745.77 610.678C1738.39 599.809 1735.58 586.538 1735.63 573.714L1735.63 567.233L1739.13 572.688C1747.57 585.617 1757.67 597.781 1769.62 607.487C1781 616.931 1798.1 624.616 1809.87 614.229L1809.79 614.296C1813.61 610.812 1816.66 604.392 1814.04 600.814C1811.22 597.236 1804.45 597.309 1798.88 597.935L1798.66 597.948C1775.79 596.673 1744.54 594.738 1735.67 567.835C1732.77 552.989 1730.36 538.131 1729.9 522.796L1733.54 522.035C1738.68 533.33 1746.12 543.908 1755.19 552.387C1759.74 556.513 1764.98 560.272 1770.64 561.306C1776.34 562.498 1781.56 559.116 1784.63 553.946L1784.47 554.272C1789.47 540.347 1776.38 527.136 1762.66 522.793C1748.19 517.34 1733.42 510.412 1723.05 497.948C1712.13 485.524 1712.08 466.635 1718.59 452.387L1720.07 448.818L1721.99 452.177C1727.61 461.471 1735.88 473.04 1746.04 472.525C1750.4 471.898 1753.68 467.558 1755.88 463.007L1755.79 463.236C1758.31 454.682 1751.01 445.966 1742.46 442.334L1742.4 442.307C1731.02 436.75 1725.57 422.502 1728.76 410.742C1731.56 398.87 1738.84 389.049 1746.63 380.375C1747.57 381.228 1748.51 382.081 1749.45 382.934C1741.86 391.335 1734.97 400.845 1732.47 411.573C1729.67 422.184 1734.41 434.093 1744.12 438.918L1744.07 438.891C1753.25 442.823 1762.71 452.793 1759.39 464.441L1759.3 464.669C1756.88 469.551 1753.21 475.181 1746.61 476.283C1731.98 476.364 1724.97 463.726 1718.69 454.06L1722.1 453.85C1715.97 467.539 1716.09 484.143 1726 495.554C1735.52 507.05 1749.79 513.914 1763.98 519.226C1778.23 523.673 1794.09 538.462 1788.02 555.638L1787.85 555.964C1784.6 561.78 1777.2 566.699 1770 565.052C1763 563.723 1757.48 559.544 1752.63 555.193C1743.04 546.206 1735.5 535.48 1730.06 523.557L1733.7 522.796C1734.14 537.495 1736.52 552.444 1739.4 567.088C1746.15 589.669 1776.48 593.286 1798.66 594.146L1798.44 594.159C1804.41 593.731 1811.7 592.524 1817.1 598.561C1821.46 605.748 1816.78 612.708 1812.36 617.103L1812.28 617.17C1798.23 629.355 1778.77 620.099 1767.24 610.455C1754.82 600.35 1744.6 588.01 1735.93 574.741L1739.43 573.714C1737.9 599.533 1755.19 619.358 1776.09 633.974L1776.02 633.912C1782.34 639.453 1788.58 645.328 1792.7 653.165C1794.64 657.013 1796.09 662.054 1793.96 666.745C1791.79 671.379 1787.18 673.754 1782.83 674.728L1782.57 674.766C1763.47 677.079 1748.7 660.316 1742.87 644.442C1736.42 628.134 1733.9 610.697 1733.72 593.367L1737.42 593.975C1729.49 620.231 1727.74 652.023 1744.75 674.369C1756.63 687.301 1762.17 712.907 1744.3 724.491L1743.98 724.657C1739.94 726.285 1735.35 727.367 1730.69 726.368C1726.02 725.419 1722.16 722.08 1719.78 718.338C1715 710.679 1713.73 702.023 1713.01 693.653C1711.93 676.78 1713.68 659.948 1718.53 643.708L1722.11 644.973C1704.56 692.359 1663.88 741.129 1608.36 738.182L1608.53 738.195C1587.69 736.991 1557.01 729.267 1557.03 702.293C1557.1 694.44 1560.12 684.459 1568.89 681.263C1577.24 678.248 1585.78 680.377 1593.17 683.655C1607.51 689.882 1620.21 702.698 1634.11 703.149L1634.38 703.129C1670.62 702.638 1697.15 669.751 1710.94 638.213L1714.45 639.661C1704.33 658.313 1686.5 669.159 1669.09 678.817C1660.15 683.412 1650.8 687.351 1640.72 689.198C1631.35 691.199 1616.93 689.798 1613.48 677.943C1611.48 671.442 1609.15 663.555 1613.93 656.548C1619.42 649.874 1628.19 650.624 1634.88 652.277L1634.72 652.242C1652.92 655.597 1673.05 658.317 1688.05 647.072L1690.1 650.265C1677.49 659.608 1655.89 652.224 1653.5 635.536C1652.36 629.595 1657.69 623.038 1663.81 622.74L1664.23 622.746C1693.43 628.435 1723.31 607.15 1727.06 577.913L1730.73 578.819C1727.05 588.841 1722.85 599.001 1715.23 607.19C1711.44 611.155 1705.97 614.7 1699.78 614.182C1693.65 613.676 1688.69 609.738 1685.37 605.2L1685.15 604.801C1682.34 598.034 1681.31 589.765 1684.68 582.665C1687.99 575.605 1694.45 570.687 1701.63 568.327L1701.56 568.349C1731.32 558.958 1726.34 519.757 1714.81 495.924L1718.28 494.387C1721.73 502.998 1724.58 512.083 1724.59 521.73C1725.03 531.247 1719.18 542.013 1709.57 545.114C1707.01 546.142 1703.67 546.518 1700.84 544.968C1698.04 543.451 1696.45 540.768 1695.56 538.19C1694.09 533.015 1693.32 527.095 1698.16 522.19C1701.31 519.805 1701.55 514.241 1700.37 509.929L1700.31 509.672C1699 500.708 1698.42 491.622 1698.66 482.557C1699.66 443.845 1716.18 404.755 1746.91 380.124ZM1719.68 615.693C1720.12 614.506 1720.56 613.32 1721.01 612.133C1721.76 612.372 1722.41 613.216 1722.54 613.779C1722.71 614.368 1722.68 614.767 1722.65 615.128C1722.57 615.819 1722.4 616.286 1722.22 616.752C1721.87 617.657 1721.45 618.414 1721.01 619.151C1715.19 628.023 1707.85 634.937 1700.65 642.076C1697.48 645.149 1694.01 647.992 1690.1 650.265L1688.05 647.072C1699.24 639.032 1708.68 628.48 1716.26 616.915C1717.1 615.612 1717.92 614.29 1718.7 612.954C1719.79 613.593 1720.89 614.233 1721.98 614.872C1721.17 616.264 1720.32 617.635 1719.45 618.983C1711.61 630.929 1701.95 641.752 1690.25 650.169L1688.2 646.977C1691.74 644.916 1695 642.264 1698.01 639.348C1705.09 632.351 1712.52 625.198 1717.75 617.198C1718.12 616.576 1718.46 615.941 1718.68 615.376C1718.79 615.101 1718.86 614.828 1718.87 614.725C1718.88 614.681 1718.85 614.688 1718.9 614.895C1718.93 615.084 1719.3 615.586 1719.68 615.693Z" fill="#52667E"/>
<path d="M1702.2 228.912C1692.26 296.803 1728.62 342.362 1748.04 356.654C1717.48 323.066 1732.12 303.354 1743.26 297.697C1758.55 290.55 1759.18 279.235 1757.59 274.471C1746.13 250.888 1727.98 271.791 1720.34 285.19C1705.06 248.565 1731.8 228.912 1763.32 217.299C1788.54 208.009 1789.11 190.798 1786.24 183.354C1770.64 158.457 1741.04 194.371 1731.8 215.513C1731.8 210.153 1732.95 193.716 1737.53 170.848C1742.12 147.979 1780.19 142.262 1798.66 142.262C1823.11 145.121 1818.29 129.201 1811.08 122.609C1786.63 102.599 1751.86 142.262 1737.53 164.595C1737.53 124.575 1763.03 114.118 1774.78 102.957C1803.82 77.9443 1791.97 67.5225 1782.42 65.4381C1744.98 62.5795 1735.62 117.25 1735.62 144.942C1729.89 127.969 1723.4 87.7706 1743.26 62.7582C1763.13 37.7457 1751.54 20.773 1743.26 15.4132C1708.78 1.43148 1711.43 66.0336 1720.34 94.0238C1689.02 13.2693 1632.79 -0.963964 1608.6 2.0137C1591.72 2.60925 1558.17 10.2321 1558.93 35.9592C1559.7 61.6863 1581.54 57.9939 1592.36 52.9319C1608.37 45.4439 1624.2 31.7904 1634.38 33.2792C1675.64 33.2792 1703.79 77.3488 1712.7 99.3836C1702.2 74.3711 1625.79 29.706 1615.28 60.9716C1606.88 85.984 1624.51 86.8773 1634.38 84.1974C1656.1 80.2439 1673.47 78.5214 1689.15 89.6882C1692.37 91.5533 1695.77 94.14 1699.33 97.597C1719.96 117.607 1721.93 123.8 1720.34 124.396C1714.2 113.886 1703.09 99.6159 1689.15 89.6882C1669.1 78.0591 1656.22 94.4886 1655.4 102.957C1654.63 110.818 1660.81 113.379 1663.99 113.676C1709.84 107.959 1726.39 142.262 1728.94 160.128C1712.89 115.106 1694.24 124.098 1686.91 134.222C1678.51 154.947 1693.6 165.488 1702.2 168.168C1736.58 180.317 1726.07 223.255 1716.52 243.205C1724.16 224.446 1727.73 202.295 1708.88 194.967C1696.16 190.023 1693.6 210.153 1699.33 214.62C1703.91 218.193 1703.15 225.637 1702.2 228.912Z" fill="#52667E"/>
<path d="M1746.91 358.185C1747.66 357.165 1748.42 356.144 1749.17 355.124C1719.77 331.604 1703.36 293.31 1702.46 255.651C1702.23 246.815 1702.79 237.948 1704.08 229.187L1704.02 229.444C1705.34 224.152 1705.67 217.496 1700.5 213.12C1695.55 208.188 1699.52 192.204 1708.19 196.738C1726.29 203.132 1721.26 227.024 1714.76 242.488L1718.24 244.026C1724.41 230.689 1728.37 216.11 1727.66 201.139C1727.48 186.234 1717.64 170.783 1702.83 166.376L1702.76 166.353C1689.64 162.634 1682.39 147.467 1688.68 134.937L1688.45 135.336C1691.29 131.416 1695.52 128.253 1700.08 127.917C1704.64 127.514 1709.07 130.18 1712.49 133.762C1719.36 141.091 1723.59 150.987 1727.15 160.766L1730.82 159.86C1727.05 128.655 1694.24 105.658 1663.76 111.79L1664.17 111.784C1659.86 111.356 1656.6 107.663 1657.29 103.141C1659.36 89.9328 1676.7 83.0166 1688.2 91.3324L1690.25 88.14C1673.77 75.8557 1652.19 79.0007 1634.04 82.3275L1633.89 82.3632C1627.9 83.9593 1620.37 83.96 1616.96 79.4661C1613.61 74.8927 1615.06 67.6839 1617.08 61.577C1619.68 52.4131 1630.9 51.0315 1640.06 52.8551C1649.51 54.5784 1658.64 58.3851 1667.34 62.8654C1684.23 72.0875 1702.1 83.6023 1710.95 100.12L1714.46 98.6708C1700.18 66.248 1673.36 32.1618 1634.38 31.3786L1634.66 31.3986C1616.58 32.3293 1605.77 45.324 1591.55 51.2102C1584.87 54.2412 1576.85 55.9701 1570.28 53.5066C1563.57 51.0917 1560.94 43.3228 1560.83 35.9027C1560.25 13.1191 1588.41 4.93313 1608.66 3.9132L1608.83 3.90014C1661.12 0.990472 1701.38 47.9709 1718.57 94.7112L1722.15 93.447C1717.5 77.9025 1715.74 61.1931 1716.8 44.944C1717.46 36.9023 1718.84 28.5955 1722.97 22.0468C1726.91 15.1643 1735.33 13.8662 1742.55 17.1746L1742.23 17.0086C1757.33 26.8125 1753.17 48.8814 1741.78 61.5761C1723.51 85.8602 1725.68 118.287 1733.82 145.55L1737.52 144.942C1737.68 128.101 1740.2 110.918 1746.39 95.2974C1752.18 79.8997 1765.29 65.3082 1782.28 67.3333L1782.02 67.2951C1785.64 68.0801 1789.13 70.1027 1790.5 73.1447C1791.92 76.1699 1791.04 80.0262 1789.31 83.4368C1785.7 90.3437 1779.68 96.1603 1773.54 101.517L1773.47 101.579C1764.45 109.543 1752.91 116.575 1745.77 127.631C1738.39 138.5 1735.58 151.771 1735.63 164.595L1735.63 171.076L1739.13 165.621C1747.57 152.692 1757.67 140.528 1769.62 130.822C1781 121.378 1798.1 113.692 1809.87 124.08L1809.79 124.013C1813.61 127.497 1816.66 133.917 1814.04 137.495C1811.22 141.073 1804.45 141 1798.88 140.374L1798.66 140.361C1775.79 141.635 1744.54 143.571 1735.67 170.474C1732.77 185.32 1730.36 200.178 1729.9 215.513L1733.54 216.273C1738.68 204.979 1746.12 194.401 1755.19 185.922C1759.74 181.796 1764.98 178.037 1770.64 177.003C1776.34 175.811 1781.56 179.193 1784.63 184.363L1784.47 184.037C1789.47 197.962 1776.38 211.173 1762.66 215.516C1748.19 220.969 1733.42 227.897 1723.05 240.361C1712.13 252.785 1712.08 271.674 1718.59 285.922L1720.07 289.491L1721.99 286.132C1727.61 276.838 1735.88 265.269 1746.04 265.784C1750.4 266.41 1753.68 270.751 1755.88 275.301L1755.79 275.073C1758.31 283.627 1751.01 292.343 1742.46 295.975L1742.4 296.002C1731.02 301.559 1725.57 315.807 1728.76 327.567C1731.56 339.439 1738.84 349.26 1746.63 357.934C1747.57 357.081 1748.51 356.228 1749.45 355.375C1741.86 346.974 1734.97 337.464 1732.47 326.736C1729.67 316.124 1734.41 304.216 1744.12 299.391L1744.07 299.418C1753.25 295.486 1762.71 285.516 1759.39 273.868L1759.3 273.64C1756.88 268.758 1753.21 263.128 1746.61 262.026C1731.98 261.945 1724.97 274.583 1718.69 284.249L1722.1 284.458C1715.97 270.77 1716.09 254.166 1726 242.755C1735.52 231.259 1749.79 224.395 1763.98 219.083C1778.23 214.636 1794.09 199.846 1788.02 182.671L1787.85 182.344C1784.6 176.528 1777.2 171.61 1770 173.257C1763 174.586 1757.48 178.765 1752.63 183.116C1743.04 192.103 1735.5 202.829 1730.06 214.752L1733.7 215.513C1734.14 200.814 1736.52 185.865 1739.4 171.221C1746.15 148.64 1776.48 145.023 1798.66 144.163L1798.44 144.15C1804.41 144.578 1811.7 145.785 1817.1 139.748C1821.46 132.561 1816.78 125.601 1812.36 121.206L1812.28 121.139C1798.23 108.954 1778.77 118.21 1767.24 127.854C1754.82 137.959 1744.6 150.299 1735.93 163.568L1739.43 164.595C1737.9 138.776 1755.19 118.951 1776.09 104.335L1776.02 104.397C1782.34 98.8564 1788.58 92.9808 1792.7 85.1444C1794.64 81.2956 1796.09 76.2546 1793.96 71.5641C1791.79 66.9303 1787.18 64.5544 1782.83 63.5811L1782.57 63.543C1763.47 61.2302 1748.7 77.9926 1742.87 93.8669C1736.42 110.175 1733.9 127.612 1733.72 144.942L1737.42 144.334C1729.49 118.078 1727.74 86.2856 1744.75 63.9403C1756.63 51.0082 1762.17 25.4015 1744.3 13.8178L1743.98 13.6518C1739.94 12.0235 1735.35 10.9418 1730.69 11.9405C1726.02 12.8903 1722.16 16.2286 1719.78 19.9708C1715 27.6299 1713.73 36.2856 1713.01 44.6558C1711.93 61.5289 1713.68 78.3606 1718.53 94.6005L1722.11 93.3364C1704.56 45.9498 1663.88 -2.82035 1608.36 0.127255L1608.53 0.114223C1587.69 1.3182 1557.01 9.04233 1557.03 36.0156C1557.1 43.8689 1560.12 53.8503 1568.89 57.0461C1577.24 60.0609 1585.78 57.9322 1593.17 54.6536C1607.51 48.4269 1620.21 35.6106 1634.11 35.1599L1634.38 35.1799C1670.62 35.6707 1697.15 68.5575 1710.94 100.096L1714.45 98.6475C1704.33 79.9963 1686.5 69.1504 1669.09 59.4918C1660.15 54.8965 1650.8 50.9583 1640.72 49.1114C1631.35 47.1103 1616.93 48.5113 1613.48 60.3662C1611.48 66.8669 1609.15 74.7541 1613.93 81.7609C1619.42 88.4349 1628.19 87.6847 1634.88 86.0317L1634.72 86.0674C1652.92 82.7123 1673.05 79.9921 1688.05 91.2365L1690.1 88.0441C1677.49 78.7013 1655.89 86.0848 1653.5 102.773C1652.36 108.714 1657.69 115.271 1663.81 115.569L1664.23 115.562C1693.43 109.874 1723.31 131.159 1727.06 160.396L1730.73 159.49C1727.05 149.468 1722.85 139.308 1715.23 131.119C1711.44 127.154 1705.97 123.608 1699.78 124.127C1693.65 124.633 1688.69 128.571 1685.37 133.108L1685.15 133.508C1682.34 140.275 1681.31 148.544 1684.68 155.644C1687.99 162.704 1694.45 167.622 1701.63 169.982L1701.56 169.96C1731.32 179.35 1726.34 218.552 1714.81 242.384L1718.28 243.922C1721.73 235.311 1724.58 226.226 1724.59 216.579C1725.03 207.062 1719.18 196.296 1709.57 193.195C1707.01 192.167 1703.67 191.791 1700.84 193.34C1698.04 194.858 1696.45 197.541 1695.56 200.119C1694.09 205.294 1693.32 211.214 1698.16 216.119C1701.31 218.504 1701.55 224.068 1700.37 228.38L1700.31 228.637C1699 237.6 1698.42 246.687 1698.66 255.752C1699.66 294.464 1716.18 333.553 1746.91 358.185ZM1719.68 122.616C1720.12 123.803 1720.56 124.989 1721.01 126.176C1721.76 125.936 1722.41 125.092 1722.54 124.53C1722.71 123.941 1722.68 123.542 1722.65 123.181C1722.57 122.49 1722.4 122.023 1722.22 121.557C1721.87 120.652 1721.45 119.895 1721.01 119.158C1715.19 110.286 1707.85 103.372 1700.65 96.2327C1697.48 93.1597 1694.01 90.3171 1690.1 88.0441L1688.05 91.2365C1699.24 99.2766 1708.68 109.829 1716.26 121.394C1717.1 122.697 1717.92 124.019 1718.7 125.355C1719.79 124.716 1720.89 124.076 1721.98 123.437C1721.17 122.045 1720.32 120.674 1719.45 119.326C1711.61 107.38 1701.95 96.5567 1690.25 88.14L1688.2 91.3324C1691.74 93.3931 1695 96.0447 1698.01 98.9613C1705.09 105.958 1712.52 113.111 1717.75 121.11C1718.12 121.733 1718.46 122.368 1718.68 122.933C1718.79 123.208 1718.86 123.481 1718.87 123.584C1718.88 123.628 1718.85 123.621 1718.9 123.414C1718.93 123.225 1719.3 122.723 1719.68 122.616Z" fill="#52667E"/>
</svg>
