<svg width="958" height="662" viewBox="0 0 958 662" fill="none" xmlns="http://www.w3.org/2000/svg">
<path d="M91.3896 178.137C99.1282 231.111 70.8034 266.659 55.6737 277.812C79.4843 251.603 68.075 236.222 59.3941 231.808C47.4888 226.232 46.9927 217.403 48.2329 213.685C57.1619 195.284 71.2994 211.594 77.252 222.049C89.1573 193.471 68.3231 178.137 43.7684 169.075C24.1246 161.826 23.6782 148.397 25.9104 142.588C38.0684 123.162 61.1303 151.185 68.3231 167.681C68.3231 163.499 67.4302 150.674 63.8586 132.83C60.287 114.986 30.623 110.525 16.2374 110.525C-2.81108 112.756 0.943135 100.334 6.56434 95.1905C25.6128 79.5771 52.6974 110.525 63.8586 127.951C63.8586 96.724 43.9914 88.5646 34.8394 79.8559C12.2194 60.3392 21.446 52.2072 28.8868 50.5808C58.0548 48.3503 65.3468 91.0084 65.3468 112.616C69.8112 99.3727 74.871 68.0065 59.3941 48.4897C43.9172 28.9729 52.9454 15.7295 59.3941 11.5473C86.2588 0.637608 84.1968 51.0455 77.2521 72.8857C101.658 9.87442 145.459 -1.23153 164.31 1.0919C177.455 1.55659 203.597 7.50456 203.002 27.5789C202.406 47.6533 185.392 44.7722 176.959 40.8224C164.485 34.9797 152.156 24.3261 144.219 25.4878C112.075 25.4878 90.1495 59.8745 83.2047 77.0678C91.3896 57.5511 150.916 22.6997 159.101 47.0956C165.649 66.6124 151.908 67.3094 144.219 65.2184C127.298 62.1335 113.769 60.7895 101.552 69.5027C99.0473 70.958 96.3985 72.9763 93.6218 75.6738C77.5497 91.2872 76.0119 96.1199 77.2521 96.5846C82.0379 88.3835 90.6914 77.2491 101.552 69.5027C117.173 60.4288 127.208 73.2484 127.85 79.8559C128.445 85.9898 123.633 87.9879 121.153 88.2203C85.4369 83.7593 72.5395 110.525 70.5553 124.466C83.0559 89.3355 97.5903 96.3522 103.295 104.252C109.843 120.423 98.0863 128.648 91.3896 130.739C64.6027 140.218 72.7875 173.722 80.2284 189.289C74.2757 174.652 71.4948 157.368 86.181 151.65C96.0879 147.792 98.0863 163.499 93.6218 166.984C90.0503 169.772 90.6455 175.581 91.3896 178.137Z" fill="#52667E"/>
<path d="M56.2674 278.617C55.8716 278.08 55.4758 277.543 55.08 277.006C78.158 258.507 90.9413 228.541 91.6618 199.045C91.848 192.11 91.4042 185.153 90.3996 178.281L90.4289 178.416C89.4214 174.412 89.2291 169.36 93.0062 166.196C97.2486 161.889 93.9538 148.951 86.544 152.582C71.9721 157.821 76.098 176.847 81.1552 188.912L79.3256 189.721C74.5452 179.387 71.484 168.056 72.0277 156.503C72.1905 144.99 79.6608 133.212 91.0558 129.796L91.0914 129.784C101.558 126.86 107.378 114.54 102.368 104.627L102.484 104.838C100.214 101.702 96.8254 99.1333 93.0737 98.8506C89.3075 98.5227 85.7248 100.719 83.0158 103.563C77.5709 109.393 74.2836 117.144 71.4979 124.801L69.5648 124.325C72.4866 100.255 97.6642 82.4936 121.277 87.2275L121.06 87.2241C124.651 86.9063 127.446 83.6589 126.854 79.9526C125.204 69.2159 111.157 63.7449 102.055 70.3679L100.971 68.6882C113.621 59.2364 130.255 61.6337 144.399 64.2341L144.482 64.2529C149.235 65.5069 155.268 65.5993 158.179 61.8116C160.968 57.9311 159.724 52.2268 158.152 47.4139C156.026 39.9275 146.88 38.8398 139.715 40.2876C132.27 41.6489 125.124 44.6373 118.318 48.1488C105.089 55.4014 91.1786 64.3046 84.1274 77.4548L82.277 76.6931C93.335 51.5261 114.178 25.068 144.219 24.4873L144.074 24.4978C157.637 25.1653 166.292 35.2803 177.383 39.9164C182.681 42.3134 189.003 43.7139 194.344 41.7172C199.833 39.728 201.919 33.3882 202.002 27.5493C202.393 9.25868 180.138 2.90815 164.274 2.0918L164.187 2.08491C123.009 -0.184962 91.6132 36.7265 78.185 73.247L76.2986 72.5825C79.9485 60.3676 81.3173 47.3193 80.4921 34.5654C79.969 28.2507 78.9141 21.728 75.6182 16.4728C72.4929 10.9097 65.4589 9.81287 59.7706 12.4743L59.9385 12.3868C47.821 20.2704 51.2393 37.9273 60.178 47.868C74.2502 66.5791 72.611 91.7895 66.2949 112.936L64.3462 112.616C64.222 99.4197 62.262 85.9868 57.4065 73.7128C52.8968 61.6428 42.4829 49.9615 28.9631 51.5784L29.1004 51.5582C26.1858 52.195 23.3189 53.8202 22.1573 56.3959C20.96 58.9679 21.716 62.1249 23.0947 64.8413C25.9658 70.3473 30.6857 74.8945 35.493 79.0984L35.5291 79.1311C51.1754 89.8334 66.3713 107.256 64.8591 127.951L64.8606 131.367L63.0161 128.49C56.4161 118.364 48.5364 108.853 39.1702 101.228C30.2881 93.8331 16.6601 87.6285 7.1986 95.9643L7.23977 95.9287C4.19028 98.7639 1.60967 103.835 3.86766 107.087C6.38311 110.194 11.7252 109.995 16.121 109.531L16.2374 109.525C33.9749 110.463 58.2119 112.207 64.8396 132.634C67.0991 144.192 68.9708 155.797 69.3236 167.681L67.4059 168.081C63.3684 159.193 57.5662 150.923 50.4336 144.242C46.8474 140.993 42.7294 138.004 38.1506 137.158C33.5149 136.168 29.173 139.005 26.7586 143.119L26.8444 142.947C22.8111 154.217 33.3493 164.731 44.1148 168.137C55.366 172.376 66.8148 177.781 74.7791 187.388C83.1504 196.959 83.1954 211.391 78.1756 222.434L77.3934 224.316L76.3826 222.544C71.9224 215.247 65.6342 206.07 57.1457 206.432C53.4671 206.99 50.8705 210.536 49.133 214.122L49.182 214.002C47.12 221.065 53.0695 228.027 59.8185 230.902L59.8476 230.916C68.5095 235.166 72.6571 245.983 70.2251 255.009C68.0845 264.124 62.4637 271.749 56.4142 278.484C55.9205 278.036 55.4269 277.587 54.9332 277.139C60.8698 270.547 66.2886 263.086 68.2724 254.572C70.5028 246.15 66.7234 236.562 58.9406 232.7L58.9697 232.714C51.8859 229.681 44.8025 222.056 47.2838 213.368L47.3327 213.248C49.1888 209.488 51.9859 205.266 56.8398 204.455C67.6904 204.319 73.3142 214.061 78.1215 221.554L76.3285 221.665C81.149 210.917 81.0666 197.683 73.2232 188.646C65.7078 179.55 54.5197 174.18 43.422 170.014C32.3754 166.553 20.3817 155.205 24.9765 142.229L25.0623 142.058C27.5743 137.604 33.0628 133.956 38.4917 135.186C43.776 136.188 48.0408 139.398 51.7847 142.766C59.1873 149.715 65.0422 158.063 69.2402 167.281L67.3226 167.681C66.9814 156.132 65.1217 144.479 62.8775 133.026C57.3617 114.872 33.6093 112.247 16.2374 111.526L16.3538 111.519C11.7488 111.879 6.12583 112.676 2.25316 108.27C-0.911113 103.12 2.51861 97.7679 5.88891 94.4524L5.93007 94.4167C16.5882 85.1328 31.4631 92.1666 40.4222 99.6672C50.0376 107.502 57.9788 117.106 64.7011 127.411L62.8581 127.951C64.1152 107.708 50.3171 91.854 34.1497 80.5807L34.1858 80.6135C29.2869 76.3127 24.45 71.734 21.3062 65.7389C19.8203 62.7919 18.7653 59.0132 20.3365 55.5659C21.916 52.1526 25.3698 50.3393 28.6731 49.6033L28.8105 49.5832C43.4451 47.8151 54.7318 60.6418 59.261 72.9612C64.2508 85.5963 66.2144 99.1628 66.3473 112.616L64.3987 112.297C70.6049 91.6803 72.0269 66.8017 58.6102 49.1114C49.4202 39.0441 45.2732 19.5312 58.8497 10.7079L59.0176 10.6203C64.9373 7.6435 73.9233 9.04337 77.2963 15.3827C80.9319 21.2214 81.9326 27.927 82.4874 34.4142C83.3237 47.4958 81.9558 60.6084 78.2055 73.1889L76.3191 72.5243C89.9417 35.6647 121.551 -2.19036 164.432 0.0988842L164.345 0.0919872C180.518 1.00394 204.1 7.11796 204.002 27.6086C203.943 33.675 201.651 41.1759 195.076 43.5795C188.798 45.8682 182.203 44.2562 176.535 41.7285C165.373 36.9129 155.721 26.8917 144.364 26.4778L144.219 26.4883C115.623 26.914 94.9299 52.7399 84.1324 77.4425L82.282 76.6809C90.0026 62.4082 103.895 53.856 117.394 46.3736C124.327 42.8015 131.589 39.7437 139.367 38.317C146.639 36.7745 157.479 37.8767 160.05 46.7774C161.612 51.7979 163.316 57.8561 159.777 63.0164C155.772 67.9548 149.086 67.4683 143.957 66.1838L144.04 66.2027C129.872 63.5875 114.003 61.414 102.133 70.3173L101.05 68.6376C110.737 61.4712 127.033 67.1946 128.845 79.7593C129.675 84.209 125.796 88.9663 121.246 89.2164L121.029 89.2131C98.095 84.7139 74.4563 101.57 71.5459 124.607L69.6127 124.13C72.4604 116.345 75.7329 108.456 81.5757 102.174C84.4757 99.128 88.6044 96.4671 93.2277 96.8554C97.8136 97.2274 101.587 100.205 104.106 103.666L104.222 103.876C109.716 114.367 103.127 128.698 91.6878 131.694L91.7234 131.682C68.0793 139.233 72.1205 170.204 81.1311 188.858L79.3015 189.666C76.6252 182.983 74.4285 175.933 74.419 168.522C74.1076 161.198 78.4916 153.107 85.818 150.717C87.7443 149.944 90.1812 149.684 92.2237 150.809C94.2518 151.909 95.4366 153.891 96.1056 155.832C97.2337 159.71 97.7052 164.296 94.2375 167.773C91.5291 169.889 91.4167 174.368 92.3502 177.857L92.3796 177.992C93.3999 184.971 93.8515 192.043 93.6621 199.098C92.8905 229.148 80.0465 259.531 56.2674 278.617ZM77.6031 95.6477C77.3691 96.2723 77.135 96.8969 76.901 97.5215C76.4553 97.3779 76.0826 96.8899 75.9994 96.547C75.8954 96.1889 75.9106 95.9294 75.9326 95.6885C75.987 95.2241 76.1055 94.8845 76.2336 94.5453C76.4935 93.8829 76.8101 93.3078 77.1428 92.7474C81.6027 85.9359 87.3301 80.5097 92.9247 74.9561C95.3763 72.5785 98.0503 70.3847 101.05 68.6376L102.133 70.3173C93.348 76.6407 85.9688 84.9093 80.031 93.9797C79.3697 95.0018 78.7287 96.0394 78.1162 97.0888C77.5401 96.7527 76.964 96.4165 76.3879 96.0803C77.0175 95.0016 77.6743 93.9384 78.3511 92.8926C84.4246 83.6214 91.9178 75.2102 100.971 68.6882L102.055 70.3679C99.246 72.003 96.6846 74.0963 94.319 76.3914C88.7831 81.8696 83.0074 87.4221 78.8606 93.7738C78.5624 94.2738 78.2878 94.785 78.0995 95.2682C78.0061 95.5074 77.9383 95.7446 77.9225 95.9C77.9123 95.9746 77.9277 96.0208 77.9126 95.9604C77.9127 95.9088 77.7532 95.6875 77.6031 95.6477Z" fill="#52667E"/>
<path d="M865.634 178.137C857.895 231.111 886.22 266.659 901.35 277.812C877.539 251.603 888.948 236.222 897.629 231.808C909.535 226.232 910.031 217.403 908.791 213.685C899.862 195.284 885.724 211.594 879.771 222.049C867.866 193.471 888.7 178.137 913.255 169.075C932.899 161.826 933.345 148.397 931.113 142.588C918.955 123.162 895.893 151.185 888.7 167.681C888.7 163.499 889.593 150.674 893.165 132.83C896.736 114.986 926.4 110.525 940.786 110.525C959.835 112.756 956.08 100.334 950.459 95.1905C931.411 79.5771 904.326 110.525 893.165 127.951C893.165 96.724 913.032 88.5646 922.184 79.8559C944.804 60.3392 935.577 52.2072 928.137 50.5808C898.969 48.3503 891.677 91.0084 891.677 112.616C887.212 99.3727 882.152 68.0065 897.629 48.4897C913.106 28.9729 904.078 15.7295 897.629 11.5473C870.765 0.637608 872.827 51.0455 879.771 72.8857C855.366 9.87442 811.564 -1.23153 792.714 1.0919C779.568 1.55659 753.426 7.50456 754.022 27.5789C754.617 47.6533 771.632 44.7722 780.065 40.8224C792.539 34.9797 804.867 24.3261 812.804 25.4878C844.948 25.4878 866.874 59.8745 873.819 77.0678C865.634 57.5511 806.107 22.6997 797.922 47.0956C791.375 66.6124 805.115 67.3094 812.804 65.2184C829.725 62.1335 843.254 60.7895 855.471 69.5027C857.976 70.958 860.625 72.9763 863.402 75.6738C879.474 91.2872 881.012 96.1199 879.771 96.5846C874.985 88.3835 866.332 77.2491 855.471 69.5027C839.851 60.4288 829.815 73.2484 829.174 79.8559C828.579 85.9898 833.39 87.9879 835.871 88.2203C871.586 83.7593 884.484 110.525 886.468 124.466C873.968 89.3355 859.433 96.3522 853.729 104.252C847.181 120.423 858.937 128.648 865.634 130.739C892.421 140.218 884.236 173.722 876.795 189.289C882.748 174.652 885.529 157.368 870.842 151.65C860.936 147.792 858.937 163.499 863.402 166.984C866.973 169.772 866.378 175.581 865.634 178.137Z" fill="#52667E"/>
<path d="M900.756 278.617C901.152 278.08 901.548 277.543 901.943 277.006C878.865 258.507 866.082 228.541 865.362 199.045C865.175 192.11 865.619 185.153 866.624 178.281L866.594 178.416C867.602 174.412 867.794 169.36 864.017 166.196C859.775 161.889 863.07 148.951 870.479 152.582C885.051 157.821 880.925 176.847 875.868 188.912L877.698 189.721C882.478 179.387 885.539 168.056 884.996 156.503C884.833 144.99 877.363 133.212 865.968 129.796L865.932 129.784C855.465 126.86 849.645 114.54 854.656 104.627L854.54 104.838C856.81 101.702 860.198 99.1333 863.95 98.8506C867.716 98.5227 871.299 100.719 874.008 103.563C879.452 109.393 882.74 117.144 885.525 124.801L887.459 124.325C884.537 100.255 859.359 82.4936 835.747 87.2275L835.964 87.2241C832.373 86.9063 829.578 83.6589 830.17 79.9526C831.82 69.2159 845.866 63.7449 854.968 70.3679L856.052 68.6882C843.403 59.2364 826.768 61.6337 812.625 64.2341L812.542 64.2529C807.789 65.5069 801.755 65.5993 798.844 61.8116C796.055 57.9311 797.299 52.2268 798.871 47.4139C800.997 39.9275 810.143 38.8398 817.309 40.2876C824.754 41.6489 831.899 44.6373 838.706 48.1488C851.934 55.4014 865.845 64.3046 872.896 77.4548L874.746 76.6931C863.688 51.5261 842.845 25.068 812.804 24.4873L812.949 24.4978C799.387 25.1653 790.731 35.2803 779.64 39.9164C774.343 42.3134 768.02 43.7139 762.679 41.7172C757.191 39.728 755.104 33.3882 755.022 27.5493C754.63 9.25868 776.885 2.90815 792.749 2.0918L792.836 2.08491C834.014 -0.184962 865.41 36.7265 878.838 73.247L880.725 72.5825C877.075 60.3676 875.706 47.3193 876.531 34.5654C877.054 28.2507 878.109 21.728 881.405 16.4728C884.531 10.9097 891.565 9.81287 897.253 12.4743L897.085 12.3868C909.202 20.2704 905.784 37.9273 896.845 47.868C882.773 66.5791 884.412 91.7895 890.729 112.936L892.677 112.616C892.801 99.4197 894.761 85.9868 899.617 73.7128C904.127 61.6428 914.541 49.9615 928.06 51.5784L927.923 51.5582C930.838 52.195 933.705 53.8202 934.866 56.3959C936.063 58.9679 935.307 62.1249 933.929 64.8413C931.058 70.3473 926.338 74.8945 921.53 79.0984L921.494 79.1311C905.848 89.8334 890.652 107.256 892.164 127.951L892.163 131.367L894.007 128.49C900.607 118.364 908.487 108.853 917.853 101.228C926.735 93.8331 940.363 87.6285 949.825 95.9643L949.784 95.9287C952.833 98.7639 955.414 103.835 953.156 107.087C950.64 110.194 945.298 109.995 940.902 109.531L940.786 109.525C923.049 110.463 898.812 112.207 892.184 132.634C889.924 144.192 888.053 155.797 887.7 167.681L889.617 168.081C893.655 159.193 899.457 150.923 906.59 144.242C910.176 140.993 914.294 138.004 918.873 137.158C923.508 136.168 927.85 139.005 930.265 143.119L930.179 142.947C934.212 154.217 923.674 164.731 912.909 168.137C901.657 172.376 890.209 177.781 882.244 187.388C873.873 196.959 873.828 211.391 878.848 222.434L879.63 224.316L880.641 222.544C885.101 215.247 891.389 206.07 899.878 206.432C903.556 206.99 906.153 210.536 907.89 214.122L907.841 214.002C909.903 221.065 903.954 228.027 897.205 230.902L897.176 230.916C888.514 235.166 884.366 245.983 886.798 255.009C888.939 264.124 894.56 271.749 900.609 278.484C901.103 278.036 901.597 277.587 902.09 277.139C896.154 270.547 890.735 263.086 888.751 254.572C886.521 246.15 890.3 236.562 898.083 232.7L898.054 232.714C905.138 229.681 912.221 222.056 909.74 213.368L909.691 213.248C907.835 209.488 905.037 205.266 900.184 204.455C889.333 204.319 883.709 214.061 878.902 221.554L880.695 221.665C875.874 210.917 875.957 197.683 883.8 188.646C891.316 179.55 902.504 174.18 913.601 170.014C924.648 166.553 936.642 155.205 932.047 142.229L931.961 142.058C929.449 137.604 923.961 133.956 918.532 135.186C913.247 136.188 908.983 139.398 905.239 142.766C897.836 149.715 891.981 158.063 887.783 167.281L889.701 167.681C890.042 156.132 891.902 144.479 894.146 133.026C899.662 114.872 923.414 112.247 940.786 111.526L940.67 111.519C945.275 111.879 950.898 112.676 954.77 108.27C957.935 103.12 954.505 97.7679 951.135 94.4524L951.093 94.4167C940.435 85.1328 925.56 92.1666 916.601 99.6672C906.986 107.502 899.045 117.106 892.322 127.411L894.165 127.951C892.908 107.708 906.706 91.854 922.874 80.5807L922.838 80.6135C927.737 76.3127 932.573 71.734 935.717 65.7389C937.203 62.7919 938.258 59.0132 936.687 55.5659C935.107 52.1526 931.654 50.3393 928.35 49.6033L928.213 49.5832C913.578 47.8151 902.292 60.6418 897.762 72.9612C892.773 85.5963 890.809 99.1628 890.676 112.616L892.625 112.297C886.419 91.6803 884.996 66.8017 898.413 49.1114C907.603 39.0441 911.75 19.5312 898.174 10.7079L898.006 10.6203C892.086 7.6435 883.1 9.04337 879.727 15.3827C876.092 21.2214 875.091 27.927 874.536 34.4142C873.7 47.4958 875.068 60.6084 878.818 73.1889L880.704 72.5243C867.082 35.6647 835.472 -2.19036 792.592 0.0988842L792.679 0.0919872C776.505 1.00394 752.924 7.11796 753.022 27.6086C753.08 33.675 755.373 41.1759 761.947 43.5795C768.225 45.8682 774.82 44.2562 780.489 41.7285C791.651 36.9129 801.302 26.8917 812.659 26.4778L812.804 26.4883C841.4 26.914 862.093 52.7399 872.891 77.4425L874.741 76.6809C867.021 62.4082 853.129 53.856 839.629 46.3736C832.696 42.8015 825.434 39.7437 817.656 38.317C810.384 36.7745 799.544 37.8767 796.974 46.7774C795.411 51.7979 793.708 57.8561 797.247 63.0164C801.251 67.9548 807.938 67.4683 813.067 66.1838L812.984 66.2027C827.152 63.5875 843.02 61.414 854.89 70.3173L855.974 68.6376C846.286 61.4712 829.99 67.1946 828.178 79.7593C827.348 84.209 831.227 88.9663 835.777 89.2164L835.995 89.2131C858.928 84.7139 882.567 101.57 885.478 124.607L887.411 124.13C884.563 116.345 881.291 108.456 875.448 102.174C872.548 99.128 868.419 96.4671 863.796 96.8554C859.21 97.2274 855.437 100.205 852.917 103.666L852.801 103.876C847.308 114.367 853.896 128.698 865.336 131.694L865.3 131.682C888.944 139.233 884.903 170.204 875.892 188.858L877.722 189.666C880.398 182.983 882.595 175.933 882.604 168.522C882.916 161.198 878.532 153.107 871.205 150.717C869.279 149.944 866.842 149.684 864.8 150.809C862.772 151.909 861.587 153.891 860.918 155.832C859.79 159.71 859.318 164.296 862.786 167.773C865.494 169.889 865.607 174.368 864.673 177.857L864.644 177.992C863.624 184.971 863.172 192.043 863.361 199.098C864.133 229.148 876.977 259.531 900.756 278.617ZM879.42 95.6477C879.654 96.2723 879.888 96.8969 880.122 97.5215C880.568 97.3779 880.941 96.8899 881.024 96.547C881.128 96.1889 881.113 95.9294 881.091 95.6885C881.036 95.2241 880.918 94.8845 880.79 94.5453C880.53 93.8829 880.213 93.3078 879.881 92.7474C875.421 85.9359 869.693 80.5097 864.099 74.9561C861.647 72.5785 858.973 70.3847 855.974 68.6376L854.89 70.3173C863.675 76.6407 871.055 84.9093 876.992 93.9797C877.654 95.0018 878.295 96.0394 878.907 97.0888C879.483 96.7527 880.059 96.4165 880.636 96.0803C880.006 95.0016 879.349 93.9384 878.672 92.8926C872.599 83.6214 865.106 75.2102 856.052 68.6882L854.968 70.3679C857.777 72.003 860.339 74.0963 862.704 76.3914C868.24 81.8696 874.016 87.4221 878.163 93.7738C878.461 94.2738 878.736 94.785 878.924 95.2682C879.017 95.5074 879.085 95.7446 879.101 95.9C879.111 95.9746 879.096 96.0208 879.111 95.9604C879.111 95.9088 879.27 95.6875 879.42 95.6477Z" fill="#52667E"/>
<path d="M90.3896 483.486C98.1282 430.512 69.8034 394.964 54.6737 383.812C78.4843 410.02 67.075 425.401 58.3941 429.815C46.4888 435.392 45.9927 444.221 47.2329 447.938C56.1619 466.34 70.2994 450.029 76.252 439.574C88.1573 468.152 67.3231 483.486 42.7684 492.548C23.1246 499.797 22.6782 513.226 24.9104 519.035C37.0684 538.461 60.1303 510.438 67.3231 493.942C67.3231 498.124 66.4302 510.949 62.8586 528.793C59.287 546.637 29.623 551.098 15.2374 551.098C-3.81108 548.868 -0.056865 561.289 5.56434 566.433C24.6128 582.046 51.6974 551.098 62.8586 533.672C62.8586 564.899 42.9914 573.059 33.8394 581.767C11.2194 601.284 20.446 609.416 27.8868 611.042C57.0548 613.273 64.3468 570.615 64.3468 549.007C68.8112 562.25 73.871 593.617 58.3941 613.133C42.9172 632.65 51.9454 645.894 58.3941 650.076C85.2588 660.986 83.1968 610.578 76.2521 588.737C100.658 651.749 144.459 662.855 163.31 660.531C176.455 660.067 202.597 654.119 202.002 634.044C201.406 613.97 184.392 616.851 175.959 620.801C163.485 626.643 151.156 637.297 143.219 636.135C111.075 636.135 89.1495 601.749 82.2047 584.555C90.3896 604.072 149.916 638.923 158.101 614.528C164.649 595.011 150.908 594.314 143.219 596.405C126.298 599.49 112.769 600.834 100.552 592.12C98.0473 590.665 95.3985 588.647 92.6218 585.949C76.5497 570.336 75.0119 565.503 76.2521 565.039C81.0379 573.24 89.6914 584.374 100.552 592.12C116.173 601.194 126.208 588.375 126.85 581.767C127.445 575.633 122.633 573.635 120.153 573.403C84.4369 577.864 71.5395 551.098 69.5553 537.157C82.0559 572.288 96.5903 565.271 102.295 557.371C108.843 541.2 97.0863 532.975 90.3896 530.884C63.6027 521.405 71.7875 487.901 79.2284 472.334C73.2757 486.972 70.4948 504.255 85.181 509.973C95.0879 513.831 97.0863 498.124 92.6218 494.639C89.0503 491.851 89.6455 486.042 90.3896 483.486Z" fill="#52667E"/>
<path d="M55.2674 383.006C54.8716 383.543 54.4758 384.08 54.08 384.617C77.158 403.116 89.9413 433.083 90.6618 462.578C90.848 469.513 90.4042 476.47 89.3996 483.342L89.4289 483.207C88.4214 487.212 88.2291 492.263 92.0062 495.428C96.2486 499.734 92.9538 512.672 85.544 509.041C70.9721 503.802 75.098 484.776 80.1552 472.711L78.3256 471.903C73.5452 482.236 70.484 493.567 71.0277 505.121C71.1905 516.633 78.6608 528.412 90.0558 531.827L90.0914 531.839C100.558 534.764 106.378 547.083 101.368 556.996L101.484 556.786C99.2135 559.922 95.8254 562.49 92.0737 562.773C88.3075 563.1 84.7248 560.904 82.0158 558.06C76.5709 552.23 73.2836 544.479 70.4979 536.822L68.5648 537.298C71.4866 561.368 96.6642 579.13 120.277 574.396L120.06 574.399C123.651 574.717 126.446 577.964 125.854 581.671C124.204 592.407 110.157 597.878 101.055 591.255L99.9715 592.935C112.621 602.387 129.255 599.989 143.399 597.389L143.482 597.37C148.235 596.116 154.268 596.024 157.179 599.812C159.968 603.692 158.724 609.396 157.152 614.209C155.026 621.696 145.88 622.783 138.715 621.336C131.27 619.974 124.124 616.986 117.318 613.474C104.089 606.222 90.1786 597.319 83.1274 584.168L81.277 584.93C92.335 610.097 113.178 636.555 143.219 637.136L143.074 637.125C156.637 636.458 165.292 626.343 176.383 621.707C181.681 619.31 188.003 617.909 193.344 619.906C198.833 621.895 200.919 628.235 201.002 634.074C201.393 652.364 179.138 658.715 163.274 659.531L163.187 659.538C122.009 661.808 90.6132 624.897 77.185 588.376L75.2986 589.041C78.9485 601.256 80.3173 614.304 79.4921 627.058C78.969 633.372 77.9141 639.895 74.6182 645.15C71.4929 650.713 64.4589 651.81 58.7706 649.149L58.9385 649.236C46.821 641.353 50.2393 623.696 59.178 613.755C73.2502 595.044 71.611 569.834 65.2949 548.687L63.3462 549.007C63.222 562.203 61.262 575.636 56.4065 587.91C51.8968 599.98 41.4829 611.662 27.9631 610.045L28.1004 610.065C25.1858 609.428 22.3189 607.803 21.1573 605.227C19.96 602.655 20.716 599.498 22.0947 596.782C24.9658 591.276 29.6857 586.729 34.493 582.525L34.5291 582.492C50.1754 571.79 65.3713 554.367 63.8591 533.672L63.8606 530.256L62.0161 533.133C55.4161 543.259 47.5364 552.77 38.1702 560.395C29.2881 567.79 15.6601 573.995 6.1986 565.659L6.23977 565.694C3.19028 562.859 0.609669 557.788 2.86766 554.536C5.38311 551.429 10.7252 551.628 15.121 552.092L15.2374 552.099C32.9749 551.161 57.2119 549.416 63.8396 528.99C66.0991 517.431 67.9708 505.826 68.3236 493.942L66.4059 493.542C62.3684 502.43 56.5662 510.7 49.4336 517.382C45.8474 520.63 41.7294 523.619 37.1506 524.465C32.5149 525.455 28.173 522.618 25.7586 518.504L25.8444 518.676C21.8111 507.406 32.3493 496.892 43.1148 493.486C54.366 489.247 65.8148 483.842 73.7791 474.235C82.1504 464.664 82.1954 450.232 77.1756 439.189L76.3934 437.307L75.3826 439.079C70.9224 446.376 64.6342 455.553 56.1457 455.191C52.4671 454.633 49.8705 451.087 48.133 447.501L48.182 447.621C46.12 440.558 52.0695 433.596 58.8185 430.721L58.8476 430.707C67.5095 426.458 71.6571 415.64 69.2251 406.614C67.0845 397.499 61.4637 389.874 55.4142 383.139C54.9205 383.587 54.4269 384.036 53.9332 384.484C59.8698 391.076 65.2886 398.537 67.2724 407.051C69.5028 415.473 65.7234 425.062 57.9406 428.924L57.9697 428.909C50.8859 431.943 43.8025 439.567 46.2838 448.255L46.3327 448.375C48.1888 452.135 50.9859 456.357 55.8398 457.168C66.6904 457.304 72.3142 447.562 77.1215 440.069L75.3285 439.958C80.149 450.707 80.0666 463.94 72.2232 472.977C64.7078 482.074 53.5197 487.444 42.422 491.609C31.3754 495.07 19.3817 506.418 23.9765 519.394L24.0623 519.566C26.5743 524.019 32.0628 527.667 37.4917 526.437C42.776 525.435 47.0408 522.225 50.7847 518.858C58.1873 511.908 64.0422 503.56 68.2402 494.342L66.3226 493.942C65.9814 505.492 64.1217 517.144 61.8775 528.597C56.3617 546.751 32.6093 549.377 15.2374 550.098L15.3538 550.104C10.7488 549.745 5.12583 548.948 1.25316 553.354C-1.91111 558.503 1.51861 563.855 4.88891 567.171L4.93007 567.206C15.5882 576.49 30.4631 569.457 39.4222 561.956C49.0376 554.121 56.9788 544.518 63.7011 534.212L61.8581 533.672C63.1152 553.915 49.3171 569.769 33.1497 581.042L33.1858 581.01C28.2869 585.31 23.45 589.889 20.3062 595.884C18.8203 598.831 17.7653 602.61 19.3365 606.057C20.916 609.471 24.3698 611.284 27.6731 612.02L27.8105 612.04C42.4451 613.808 53.7318 600.981 58.261 588.662C63.2508 576.027 65.2144 562.46 65.3473 549.007L63.3987 549.327C69.6049 569.943 71.0269 594.821 57.6102 612.512C48.4202 622.579 44.2732 642.092 57.8497 650.915L58.0176 651.003C63.9373 653.98 72.9233 652.58 76.2963 646.24C79.9319 640.402 80.9326 633.696 81.4874 627.209C82.3237 614.127 80.9558 601.015 77.2055 588.434L75.3191 589.099C88.9417 625.958 120.551 663.814 163.432 661.524L163.345 661.531C179.518 660.619 203.1 654.505 203.002 634.015C202.943 627.948 200.651 620.447 194.076 618.044C187.798 615.755 181.203 617.367 175.535 619.895C164.373 624.71 154.721 634.731 143.364 635.145L143.219 635.135C114.623 634.709 93.9299 608.883 83.1324 584.181L81.282 584.942C89.0026 599.215 102.895 607.767 116.394 615.25C123.327 618.822 130.589 621.879 138.367 623.306C145.639 624.849 156.479 623.746 159.05 614.846C160.612 609.825 162.316 603.767 158.777 598.607C154.772 593.668 148.086 594.155 142.957 595.439L143.04 595.42C128.872 598.036 113.003 600.209 101.133 591.306L100.05 592.986C109.737 600.152 126.033 594.429 127.845 581.864C128.675 577.414 124.796 572.657 120.246 572.407L120.029 572.41C97.095 576.909 73.4563 560.053 70.5459 537.016L68.6127 537.493C71.4604 545.278 74.7329 553.167 80.5757 559.45C83.4757 562.495 87.6044 565.156 92.2277 564.768C96.8136 564.396 100.587 561.418 103.106 557.957L103.222 557.747C108.716 547.256 102.127 532.925 90.6878 529.929L90.7234 529.941C67.0793 522.39 71.1205 491.419 80.1311 472.765L78.3015 471.957C75.6252 478.64 73.4285 485.69 73.419 493.101C73.1076 500.425 77.4916 508.516 84.818 510.906C86.7443 511.679 89.1812 511.939 91.2237 510.814C93.2518 509.714 94.4366 507.732 95.1056 505.791C96.2337 501.913 96.7052 497.327 93.2375 493.85C90.5291 491.735 90.4167 487.255 91.3502 483.766L91.3796 483.631C92.3999 476.652 92.8515 469.58 92.6621 462.525C91.8905 432.476 79.0465 402.092 55.2674 383.006ZM76.6031 565.975C76.3691 565.351 76.135 564.726 75.901 564.102C75.4553 564.245 75.0826 564.733 74.9994 565.076C74.8954 565.434 74.9106 565.694 74.9326 565.935C74.987 566.399 75.1055 566.739 75.2336 567.078C75.4935 567.74 75.8101 568.315 76.1428 568.876C80.6027 575.687 86.3301 581.113 91.9247 586.667C94.3763 589.045 97.0503 591.238 100.05 592.986L101.133 591.306C92.348 584.982 84.9688 576.714 79.031 567.643C78.3697 566.621 77.7287 565.584 77.1162 564.534C76.5401 564.871 75.964 565.207 75.3879 565.543C76.0175 566.622 76.6743 567.685 77.3511 568.731C83.4246 578.002 90.9178 586.413 99.9715 592.935L101.055 591.255C98.246 589.62 95.6846 587.527 93.319 585.232C87.7831 579.754 82.0074 574.201 77.8606 567.849C77.5624 567.349 77.2878 566.838 77.0995 566.355C77.0061 566.116 76.9383 565.879 76.9225 565.723C76.9123 565.649 76.9277 565.602 76.9126 565.663C76.9127 565.714 76.7532 565.936 76.6031 565.975Z" fill="#52667E"/>
<path d="M866.634 483.486C858.895 430.512 887.22 394.964 902.35 383.812C878.539 410.02 889.948 425.401 898.629 429.815C910.535 435.392 911.031 444.221 909.791 447.938C900.862 466.34 886.724 450.029 880.771 439.574C868.866 468.152 889.7 483.486 914.255 492.548C933.899 499.797 934.345 513.226 932.113 519.035C919.955 538.461 896.893 510.438 889.7 493.942C889.7 498.124 890.593 510.949 894.165 528.793C897.736 546.637 927.4 551.098 941.786 551.098C960.835 548.868 957.08 561.289 951.459 566.433C932.411 582.046 905.326 551.098 894.165 533.672C894.165 564.899 914.032 573.059 923.184 581.767C945.804 601.284 936.577 609.416 929.137 611.042C899.969 613.273 892.677 570.615 892.677 549.007C888.212 562.25 883.152 593.617 898.629 613.133C914.106 632.65 905.078 645.894 898.629 650.076C871.765 660.986 873.827 610.578 880.771 588.737C856.366 651.749 812.564 662.855 793.714 660.531C780.568 660.067 754.426 654.119 755.022 634.044C755.617 613.97 772.632 616.851 781.065 620.801C793.539 626.643 805.867 637.297 813.804 636.135C845.948 636.135 867.874 601.749 874.819 584.555C866.634 604.072 807.107 638.923 798.922 614.528C792.375 595.011 806.115 594.314 813.804 596.405C830.725 599.49 844.254 600.834 856.471 592.12C858.976 590.665 861.625 588.647 864.402 585.949C880.474 570.336 882.012 565.503 880.771 565.039C875.985 573.24 867.332 584.374 856.471 592.12C840.851 601.194 830.815 588.375 830.174 581.767C829.579 575.633 834.39 573.635 836.871 573.403C872.586 577.864 885.484 551.098 887.468 537.157C874.968 572.288 860.433 565.271 854.729 557.371C848.181 541.2 859.937 532.975 866.634 530.884C893.421 521.405 885.236 487.901 877.795 472.334C883.748 486.972 886.529 504.255 871.842 509.973C861.936 513.831 859.937 498.124 864.402 494.639C867.973 491.851 867.378 486.042 866.634 483.486Z" fill="#52667E"/>
<path d="M901.756 383.006C902.152 383.543 902.548 384.08 902.943 384.617C879.865 403.116 867.082 433.083 866.362 462.578C866.175 469.513 866.619 476.47 867.624 483.342L867.594 483.207C868.602 487.212 868.794 492.263 865.017 495.428C860.775 499.734 864.07 512.672 871.479 509.041C886.051 503.802 881.925 484.776 876.868 472.711L878.698 471.903C883.478 482.236 886.539 493.567 885.996 505.121C885.833 516.633 878.363 528.412 866.968 531.827L866.932 531.839C856.465 534.764 850.645 547.083 855.656 556.996L855.54 556.786C857.81 559.922 861.198 562.49 864.95 562.773C868.716 563.1 872.299 560.904 875.008 558.06C880.452 552.23 883.74 544.479 886.525 536.822L888.459 537.298C885.537 561.368 860.359 579.13 836.747 574.396L836.964 574.399C833.373 574.717 830.578 577.964 831.17 581.671C832.82 592.407 846.866 597.878 855.968 591.255L857.052 592.935C844.403 602.387 827.768 599.989 813.625 597.389L813.542 597.37C808.789 596.116 802.755 596.024 799.844 599.812C797.055 603.692 798.299 609.396 799.871 614.209C801.997 621.696 811.143 622.783 818.309 621.336C825.754 619.974 832.899 616.986 839.706 613.474C852.934 606.222 866.845 597.319 873.896 584.168L875.746 584.93C864.688 610.097 843.845 636.555 813.804 637.136L813.949 637.125C800.387 636.458 791.731 626.343 780.64 621.707C775.343 619.31 769.02 617.909 763.679 619.906C758.191 621.895 756.104 628.235 756.022 634.074C755.63 652.364 777.885 658.715 793.749 659.531L793.836 659.538C835.014 661.808 866.41 624.897 879.838 588.376L881.725 589.041C878.075 601.256 876.706 614.304 877.531 627.058C878.054 633.372 879.109 639.895 882.405 645.15C885.531 650.713 892.565 651.81 898.253 649.149L898.085 649.236C910.202 641.353 906.784 623.696 897.845 613.755C883.773 595.044 885.412 569.834 891.729 548.687L893.677 549.007C893.801 562.203 895.761 575.636 900.617 587.91C905.127 599.98 915.541 611.662 929.06 610.045L928.923 610.065C931.838 609.428 934.705 607.803 935.866 605.227C937.063 602.655 936.307 599.498 934.929 596.782C932.058 591.276 927.338 586.729 922.53 582.525L922.494 582.492C906.848 571.79 891.652 554.367 893.164 533.672L893.163 530.256L895.007 533.133C901.607 543.259 909.487 552.77 918.853 560.395C927.735 567.79 941.363 573.995 950.825 565.659L950.784 565.694C953.833 562.859 956.414 557.788 954.156 554.536C951.64 551.429 946.298 551.628 941.902 552.092L941.786 552.099C924.049 551.161 899.812 549.416 893.184 528.99C890.924 517.431 889.053 505.826 888.7 493.942L890.617 493.542C894.655 502.43 900.457 510.7 907.59 517.382C911.176 520.63 915.294 523.619 919.873 524.465C924.508 525.455 928.85 522.618 931.265 518.504L931.179 518.676C935.212 507.406 924.674 496.892 913.909 493.486C902.657 489.247 891.209 483.842 883.244 474.235C874.873 464.664 874.828 450.232 879.848 439.189L880.63 437.307L881.641 439.079C886.101 446.376 892.389 455.553 900.878 455.191C904.556 454.633 907.153 451.087 908.89 447.501L908.841 447.621C910.903 440.558 904.954 433.596 898.205 430.721L898.176 430.707C889.514 426.458 885.366 415.64 887.798 406.614C889.939 397.499 895.56 389.874 901.609 383.139C902.103 383.587 902.597 384.036 903.09 384.484C897.154 391.076 891.735 398.537 889.751 407.051C887.521 415.473 891.3 425.062 899.083 428.924L899.054 428.909C906.138 431.943 913.221 439.567 910.74 448.255L910.691 448.375C908.835 452.135 906.037 456.357 901.184 457.168C890.333 457.304 884.709 447.562 879.902 440.069L881.695 439.958C876.874 450.707 876.957 463.94 884.8 472.977C892.316 482.074 903.504 487.444 914.601 491.609C925.648 495.07 937.642 506.418 933.047 519.394L932.961 519.566C930.449 524.019 924.961 527.667 919.532 526.437C914.247 525.435 909.983 522.225 906.239 518.858C898.836 511.908 892.981 503.56 888.783 494.342L890.701 493.942C891.042 505.492 892.902 517.144 895.146 528.597C900.662 546.751 924.414 549.377 941.786 550.098L941.67 550.104C946.275 549.745 951.898 548.948 955.77 553.354C958.935 558.503 955.505 563.855 952.135 567.171L952.093 567.206C941.435 576.49 926.56 569.457 917.601 561.956C907.986 554.121 900.045 544.518 893.322 534.212L895.165 533.672C893.908 553.915 907.706 569.769 923.874 581.042L923.838 581.01C928.737 585.31 933.573 589.889 936.717 595.884C938.203 598.831 939.258 602.61 937.687 606.057C936.107 609.471 932.654 611.284 929.35 612.02L929.213 612.04C914.578 613.808 903.292 600.981 898.762 588.662C893.773 576.027 891.809 562.46 891.676 549.007L893.625 549.327C887.419 569.943 885.996 594.821 899.413 612.512C908.603 622.579 912.75 642.092 899.174 650.915L899.006 651.003C893.086 653.98 884.1 652.58 880.727 646.24C877.092 640.402 876.091 633.696 875.536 627.209C874.7 614.127 876.068 601.015 879.818 588.434L881.704 589.099C868.082 625.958 836.472 663.814 793.592 661.524L793.679 661.531C777.505 660.619 753.924 654.505 754.022 634.015C754.08 627.948 756.373 620.447 762.947 618.044C769.225 615.755 775.82 617.367 781.489 619.895C792.651 624.71 802.302 634.731 813.659 635.145L813.804 635.135C842.4 634.709 863.093 608.883 873.891 584.181L875.741 584.942C868.021 599.215 854.129 607.767 840.629 615.25C833.696 618.822 826.434 621.879 818.656 623.306C811.384 624.849 800.544 623.746 797.974 614.846C796.411 609.825 794.708 603.767 798.247 598.607C802.251 593.668 808.938 594.155 814.067 595.439L813.984 595.42C828.152 598.036 844.02 600.209 855.89 591.306L856.974 592.986C847.286 600.152 830.99 594.429 829.178 581.864C828.348 577.414 832.227 572.657 836.777 572.407L836.995 572.41C859.928 576.909 883.567 560.053 886.478 537.016L888.411 537.493C885.563 545.278 882.291 553.167 876.448 559.45C873.548 562.495 869.419 565.156 864.796 564.768C860.21 564.396 856.437 561.418 853.917 557.957L853.801 557.747C848.308 547.256 854.896 532.925 866.336 529.929L866.3 529.941C889.944 522.39 885.903 491.419 876.892 472.765L878.722 471.957C881.398 478.64 883.595 485.69 883.604 493.101C883.916 500.425 879.532 508.516 872.205 510.906C870.279 511.679 867.842 511.939 865.8 510.814C863.772 509.714 862.587 507.732 861.918 505.791C860.79 501.913 860.318 497.327 863.786 493.85C866.494 491.735 866.607 487.255 865.673 483.766L865.644 483.631C864.624 476.652 864.172 469.58 864.361 462.525C865.133 432.476 877.977 402.092 901.756 383.006ZM880.42 565.975C880.654 565.351 880.888 564.726 881.122 564.102C881.568 564.245 881.941 564.733 882.024 565.076C882.128 565.434 882.113 565.694 882.091 565.935C882.036 566.399 881.918 566.739 881.79 567.078C881.53 567.74 881.213 568.315 880.881 568.876C876.421 575.687 870.693 581.113 865.099 586.667C862.647 589.045 859.973 591.238 856.974 592.986L855.89 591.306C864.675 584.982 872.055 576.714 877.992 567.643C878.654 566.621 879.295 565.584 879.907 564.534C880.483 564.871 881.059 565.207 881.636 565.543C881.006 566.622 880.349 567.685 879.672 568.731C873.599 578.002 866.106 586.413 857.052 592.935L855.968 591.255C858.777 589.62 861.339 587.527 863.704 585.232C869.24 579.754 875.016 574.201 879.163 567.849C879.461 567.349 879.736 566.838 879.924 566.355C880.017 566.116 880.085 565.879 880.101 565.723C880.111 565.649 880.096 565.602 880.111 565.663C880.111 565.714 880.27 565.936 880.42 565.975Z" fill="#52667E"/>
</svg>
