<svg width="380" height="827" viewBox="0 0 380 827" fill="none" xmlns="http://www.w3.org/2000/svg">
<path d="M59.0831 116.439C64.1414 151.066 45.6269 174.302 35.7374 181.592C51.3012 164.461 43.8435 154.407 38.1692 151.521C30.3873 147.876 30.063 142.105 30.8737 139.675C36.7101 127.647 45.9511 138.309 49.8421 145.143C57.624 126.463 44.0056 116.439 27.9554 110.516C15.1153 105.778 14.8235 96.9997 16.2826 93.2029C24.2296 80.5049 39.3041 98.8222 44.0056 109.605C44.0056 106.871 43.422 98.488 41.0874 86.8244C38.7528 75.1607 19.3629 72.2448 9.95981 72.2448C-2.49124 73.7027 -0.0373101 65.5835 3.63699 62.2213C16.088 52.0156 33.7919 72.2448 41.0874 83.6351C41.0874 63.2237 28.1012 57.8903 22.119 52.1979C7.33342 39.4407 13.3644 34.1253 18.2281 33.0622C37.2937 31.6042 42.0602 59.4877 42.0602 73.6116C44.9784 64.955 48.2857 44.4524 38.1692 31.6953C28.0527 18.9382 33.954 10.2816 38.1692 7.54789C55.7293 0.416759 54.3815 33.3659 49.8421 47.6417C65.795 6.45442 94.4259 -0.804995 106.747 0.713713C115.34 1.01745 132.427 4.90535 132.038 18.027C131.649 31.1486 120.528 29.2654 115.015 26.6836C106.862 22.8645 98.8032 15.9008 93.6153 16.6601C72.6041 16.6601 58.2724 39.137 53.733 50.3754C59.0831 37.6183 97.9926 14.8377 103.343 30.7841C107.623 43.5412 98.6411 43.9969 93.6153 42.63C82.5549 40.6136 73.7114 39.7351 65.726 45.4305C64.0885 46.3817 62.3572 47.701 60.5422 49.4642C50.0366 59.6699 49.0314 62.8288 49.8421 63.1325C52.9704 57.7719 58.6267 50.4939 65.726 45.4305C75.9362 39.4993 82.496 47.8788 82.9151 52.1979C83.3042 56.2073 80.1591 57.5134 78.5378 57.6652C55.1921 54.7493 46.7617 72.2448 45.4647 81.357C53.6357 58.3942 63.1361 62.9807 66.865 68.1443C71.145 78.7145 63.4604 84.0907 59.0831 85.4575C41.5738 91.6539 46.9238 113.554 51.7875 123.729C47.8966 114.161 46.0788 102.863 55.6785 99.1259C62.1541 96.6046 63.4604 106.871 60.5422 109.149C58.2076 110.972 58.5967 114.769 59.0831 116.439Z" fill="#52667E"/>
<path d="M36.1254 182.118C35.8667 181.767 35.608 181.416 35.3493 181.065C50.4342 168.973 58.7901 149.386 59.261 130.106C59.3827 125.573 59.0926 121.026 58.4359 116.534L58.4551 116.622C57.7966 114.004 57.6708 110.703 60.1397 108.634C62.9128 105.819 60.7592 97.362 55.9157 99.7353C46.3908 103.16 49.0877 115.596 52.3933 123.483L51.1975 124.011C48.0727 117.256 46.0717 109.85 46.4271 102.298C46.5336 94.7728 51.4165 87.0738 58.8649 84.841L58.8881 84.8333C65.7298 82.9218 69.5342 74.869 66.2588 68.3897L66.3348 68.5272C64.8508 66.4773 62.6362 64.7986 60.1839 64.6137C57.7221 64.3994 55.3803 65.8351 53.6095 67.6939C50.0505 71.5047 47.9018 76.5712 46.0809 81.5763L44.8173 81.2649C46.7271 65.5319 63.1845 53.922 78.6189 57.0163L78.4768 57.0141C80.8243 56.8063 82.6512 54.6837 82.2642 52.261C81.1858 45.243 72.0042 41.6669 66.0545 45.996L65.3463 44.898C73.6143 38.7199 84.4875 40.2869 93.7325 41.9866L93.7869 41.9989C96.8935 42.8186 100.837 42.879 102.74 40.4032C104.563 37.8667 103.75 34.1381 102.723 30.9921C101.333 26.0986 95.3547 25.3877 90.6707 26.334C85.8043 27.2239 81.1338 29.1772 76.6847 31.4725C68.0378 36.2131 58.9451 42.0328 54.3361 50.6283L53.1266 50.1305C60.3547 33.68 73.9787 16.3857 93.6153 16.0061L93.5205 16.013C102.386 16.4493 108.043 23.061 115.293 26.0913C118.755 27.6582 122.888 28.5736 126.38 27.2684C129.967 25.9682 131.331 21.8242 131.385 18.0076C131.641 6.05194 117.094 1.90091 106.724 1.36731L106.667 1.36281C79.7511 -0.120898 59.2292 24.0063 50.4519 47.878L49.2188 47.4436C51.6046 39.4593 52.4993 30.9303 51.9599 22.5937C51.618 18.4661 50.9285 14.2025 48.7741 10.7674C46.7313 7.13116 42.1334 6.41418 38.4153 8.15382L38.5251 8.0966C30.6044 13.2498 32.8388 24.7912 38.6816 31.2889C47.8799 43.5195 46.8084 59.9982 42.6799 73.8205L41.4062 73.6116C41.325 64.9857 40.0438 56.2053 36.87 48.1824C33.9222 40.2929 27.1151 32.6574 18.2779 33.7143L18.3677 33.7011C16.4626 34.1173 14.5886 35.1796 13.8294 36.8632C13.0467 38.5444 13.5409 40.608 14.4421 42.3835C16.3188 45.9825 19.4039 48.9548 22.5463 51.7027L22.5699 51.7241C32.797 58.7196 42.7299 70.1079 41.7414 83.6351L41.7424 85.8684L40.5367 83.9878C36.2226 77.3688 31.0721 71.152 24.9499 66.1679C19.144 61.334 10.2361 57.2784 4.05158 62.7271L4.07849 62.7038C2.08519 64.5571 0.398374 67.8719 1.87431 69.9977C3.51854 72.0283 7.01037 71.8984 9.88374 71.5952L9.95981 71.5908C21.5539 72.2039 37.3964 73.344 41.7287 86.696C43.2055 94.2511 44.429 101.837 44.6596 109.605L43.4061 109.866C40.767 104.057 36.9744 98.6511 32.3122 94.2836C29.968 92.16 27.2763 90.2064 24.2834 89.6533C21.2533 89.0063 18.4152 90.8606 16.837 93.5499L16.8931 93.4375C14.2567 100.804 21.145 107.677 28.1819 109.903C35.5362 112.674 43.0198 116.206 48.2256 122.486C53.6975 128.742 53.7269 138.176 50.4458 145.394L49.9345 146.625L49.2737 145.466C46.3583 140.696 42.248 134.698 36.6995 134.935C34.295 135.299 32.5978 137.617 31.4621 139.961L31.494 139.882C30.1463 144.499 34.0351 149.05 38.4466 150.929L38.4656 150.938C44.1275 153.716 46.8385 160.787 45.2489 166.687C43.8496 172.645 40.1756 177.629 36.2214 182.031C35.8987 181.738 35.576 181.445 35.2533 181.152C39.1338 176.843 42.6758 171.966 43.9725 166.401C45.4304 160.896 42.96 154.629 37.8727 152.104L37.8918 152.114C33.2615 150.131 28.6314 145.147 30.2533 139.468L30.2853 139.39C31.4985 136.932 33.3269 134.172 36.4996 133.642C43.5921 133.554 47.2681 139.921 50.4104 144.819L49.2383 144.891C52.3893 137.866 52.3354 129.216 47.2086 123.309C42.2962 117.363 34.983 113.853 27.729 111.13C20.5084 108.868 12.6687 101.45 15.6721 92.9683L15.7282 92.856C17.3701 89.9449 20.9577 87.5603 24.5064 88.3645C27.9604 89.0195 30.7481 91.1178 33.1953 93.3188C38.034 97.8614 41.8611 103.318 44.6051 109.344L43.3516 109.605C43.1286 102.055 41.913 94.4387 40.4461 86.9527C36.8407 75.0862 21.315 73.37 9.95981 72.8988L10.0359 72.8943C7.02582 73.1295 3.35037 73.6505 0.818998 70.7705C-1.24933 67.4047 0.992506 63.9061 3.19551 61.7389L3.22241 61.7155C10.1891 55.6471 19.9121 60.2447 25.7682 65.1475C32.0533 70.269 37.2441 76.5461 41.6381 83.2824L40.4334 83.6351C41.2552 70.4032 32.236 60.0404 21.6682 52.6717L21.6918 52.693C18.4896 49.8818 15.328 46.889 13.2731 42.9703C12.3017 41.0439 11.6122 38.574 12.6392 36.3207C13.6716 34.0896 15.9292 32.9043 18.0884 32.4233L18.1782 32.4101C27.7441 31.2544 35.1217 39.6386 38.0822 47.6911C41.3438 55.95 42.6273 64.8178 42.7141 73.6116L41.4404 73.4027C45.4972 59.9269 46.4267 43.665 37.6568 32.1017C31.6498 25.5212 28.9391 12.7666 37.8133 6.99919L37.9231 6.94195C41.7925 4.99618 47.6662 5.9112 49.8709 10.0549C52.2474 13.8714 52.9015 18.2545 53.2641 22.4948C53.8108 31.0456 52.9167 39.6167 50.4653 47.8399L49.2322 47.4055C58.1367 23.3122 78.7982 -1.43172 106.827 0.0646345L106.77 0.0601332C117.342 0.656233 132.756 4.65266 132.692 18.0464C132.654 22.0117 131.155 26.9146 126.858 28.4857C122.754 29.9818 118.444 28.9281 114.738 27.2758C107.442 24.1281 101.133 17.5778 93.71 17.3072L93.6153 17.3141C74.9234 17.5924 61.3972 34.4735 54.3394 50.6204L53.1299 50.1225C58.1764 40.7931 67.2571 35.203 76.0811 30.3121C80.6127 27.9772 85.3597 25.9785 90.4435 25.0459C95.1971 24.0377 102.282 24.7581 103.963 30.5761C104.984 33.8577 106.098 37.8177 103.784 41.1907C101.167 44.4187 96.7962 44.1007 93.4436 43.2611L93.498 43.2734C84.2368 41.564 73.8644 40.1433 66.1058 45.9629L65.3975 44.865C71.7296 40.1807 82.3816 43.9218 83.5661 52.1347C84.1084 55.0432 81.573 58.1529 78.5988 58.3164L78.4568 58.3142C63.4661 55.3733 48.0146 66.3912 46.1122 81.4492L44.8486 81.1378C46.71 76.0489 48.8491 70.8924 52.6682 66.7858C54.5638 64.7951 57.2625 63.0558 60.2846 63.3096C63.2821 63.5528 65.7484 65.4991 67.3952 67.7614L67.4712 67.8988C71.062 74.7562 66.7553 84.1236 59.278 86.0818L59.3012 86.0741C43.8463 91.0096 46.4878 111.254 52.3776 123.447L51.1817 123.975C49.4323 119.607 47.9964 114.999 47.9903 110.154C47.7867 105.367 50.6523 100.078 55.4412 98.5165C56.7003 98.0112 58.2932 97.8413 59.6283 98.5765C60.9539 99.2957 61.7284 100.591 62.1657 101.86C62.903 104.395 63.2113 107.392 60.9446 109.665C59.1742 111.048 59.1008 113.976 59.711 116.256L59.7302 116.345C60.3971 120.906 60.6923 125.529 60.5685 130.141C60.0641 149.782 51.6687 169.643 36.1254 182.118ZM50.0715 62.5201C49.9186 62.9284 49.7656 63.3367 49.6126 63.745C49.3213 63.6511 49.0776 63.3322 49.0233 63.108C48.9552 62.8739 48.9652 62.7043 48.9796 62.5468C49.0152 62.2433 49.0926 62.0213 49.1763 61.7996C49.3462 61.3666 49.5532 60.9907 49.7706 60.6244C52.6859 56.1721 56.4296 52.6252 60.0865 48.9951C61.689 47.441 63.4368 46.007 65.3975 44.865L66.1058 45.9629C60.3632 50.0962 55.5398 55.501 51.6585 61.4299C51.2262 62.098 50.8072 62.7762 50.4069 63.4622C50.0303 63.2424 49.6538 63.0227 49.2772 62.8029C49.6887 62.0978 50.1181 61.4029 50.5604 60.7193C54.5304 54.6592 59.4284 49.1612 65.3463 44.898L66.0545 45.996C64.2184 47.0648 62.5441 48.4331 60.9979 49.9333C57.3793 53.5141 53.604 57.1435 50.8935 61.2953C50.6985 61.6221 50.5191 61.9562 50.396 62.2721C50.335 62.4285 50.2906 62.5835 50.2803 62.6851C50.2736 62.7339 50.2837 62.7641 50.2738 62.7246C50.2739 62.6909 50.1696 62.5462 50.0715 62.5201Z" fill="#52667E"/>
<path d="M59.1768 709.624C64.2351 674.997 45.7206 651.761 35.8311 644.471C51.3949 661.602 43.9372 671.656 38.2629 674.541C30.481 678.186 30.1568 683.957 30.9674 686.387C36.8038 698.416 46.0449 687.754 49.9358 680.92C57.7177 699.6 44.0994 709.624 28.0492 715.547C15.2091 720.285 14.9172 729.063 16.3763 732.86C24.3234 745.558 39.3978 727.241 44.0994 716.458C44.0994 719.191 43.5157 727.575 41.1812 739.238C38.8466 750.902 19.4567 753.818 10.0536 753.818C-2.39749 752.36 0.0564399 760.479 3.73074 763.841C16.1818 774.047 33.8856 753.818 41.1812 742.428C41.1812 762.839 28.195 768.172 22.2128 773.865C7.42717 786.622 13.4581 791.938 18.3218 793.001C37.3875 794.459 42.1539 766.575 42.1539 752.451C45.0721 761.108 48.3794 781.61 38.2629 794.367C28.1465 807.125 34.0478 815.781 38.2629 818.515C55.8231 825.646 54.4753 792.697 49.9358 778.421C65.8887 819.608 94.5196 826.868 106.841 825.349C115.433 825.045 132.521 821.157 132.132 808.036C131.743 794.914 120.621 796.797 115.109 799.379C106.955 803.198 98.8969 810.162 93.709 809.403C72.6979 809.403 58.3662 786.926 53.8268 775.687C59.1768 788.444 98.0863 811.225 103.436 795.279C107.716 782.522 98.7348 782.066 93.709 783.433C82.6486 785.449 73.8052 786.328 65.8198 780.632C64.1823 779.681 62.4509 778.362 60.6359 776.599C50.1304 766.393 49.1252 763.234 49.9358 762.93C53.0641 768.291 58.7204 775.569 65.8198 780.632C76.0299 786.563 82.5897 778.184 83.0089 773.865C83.398 769.855 80.2528 768.549 78.6316 768.398C55.2859 771.313 46.8555 753.818 45.5585 744.706C53.7295 767.669 63.2299 763.082 66.9587 757.918C71.2388 747.348 63.5541 741.972 59.1768 740.605C41.6675 734.409 47.0176 712.509 51.8813 702.334C47.9903 711.902 46.1726 723.199 55.7722 726.937C62.2479 729.458 63.5541 719.191 60.6359 716.913C58.3014 715.091 58.6904 711.294 59.1768 709.624Z" fill="#52667E"/>
<path d="M36.2192 643.945C35.9605 644.296 35.7018 644.647 35.4431 644.998C50.528 657.09 58.8838 676.677 59.3548 695.957C59.4764 700.49 59.1864 705.037 58.5297 709.529L58.5489 709.441C57.8903 712.059 57.7646 715.36 60.2335 717.429C63.0065 720.244 60.8529 728.701 56.0095 726.327C46.4846 722.903 49.1815 710.467 52.4871 702.58L51.2912 702.052C48.1665 708.806 46.1655 716.213 46.5209 723.765C46.6274 731.29 51.5103 738.989 58.9586 741.222L58.9819 741.229C65.8235 743.141 69.6279 751.194 66.3525 757.673L66.4285 757.536C64.9446 759.585 62.7299 761.264 60.2776 761.449C57.8158 761.663 55.474 760.228 53.7033 758.369C50.1442 754.558 47.9955 749.492 46.1746 744.486L44.911 744.798C46.8208 760.531 63.2782 772.141 78.7126 769.046L78.5706 769.049C80.9181 769.256 82.7449 771.379 82.358 773.802C81.2795 780.82 72.098 784.396 66.1483 780.067L65.44 781.165C73.7081 787.343 84.5813 785.776 93.8263 784.076L93.8806 784.064C96.9873 783.244 100.931 783.184 102.834 785.66C104.657 788.196 103.844 791.925 102.816 795.071C101.427 799.964 95.4484 800.675 90.7644 799.729C85.898 798.839 81.2276 796.886 76.7785 794.59C68.1315 789.85 59.0389 784.03 54.4299 775.434L53.2204 775.932C60.4484 792.383 74.0725 809.677 93.709 810.057L93.6143 810.05C102.479 809.613 108.137 803.002 115.387 799.971C118.849 798.405 122.982 797.489 126.473 798.794C130.061 800.095 131.424 804.239 131.478 808.055C131.734 820.011 117.187 824.162 106.818 824.695L106.761 824.7C79.8449 826.184 59.323 802.057 50.5457 778.185L49.3126 778.619C51.6984 786.603 52.593 795.132 52.0536 803.469C51.7117 807.597 51.0222 811.86 48.8678 815.295C46.825 818.932 42.2272 819.649 38.509 817.909L38.6188 817.966C30.6982 812.813 32.9326 801.272 38.7754 794.774C47.9737 782.543 46.9022 766.065 42.7736 752.242L41.4999 752.451C41.4187 761.077 40.1375 769.857 36.9637 777.88C34.016 785.77 27.2089 793.405 18.3717 792.348L18.4615 792.362C16.5563 791.945 14.6824 790.883 13.9231 789.2C13.1405 787.518 13.6347 785.455 14.5358 783.679C16.4125 780.08 19.4977 777.108 22.64 774.36L22.6636 774.339C32.8908 767.343 42.8236 755.955 41.8352 742.428L41.8362 740.194L40.6304 742.075C36.3164 748.694 31.1658 754.911 25.0436 759.895C19.2378 764.729 10.3299 768.784 4.14533 763.336L4.17224 763.359C2.17894 761.506 0.492124 758.191 1.96806 756.065C3.61229 754.034 7.10412 754.164 9.97749 754.468L10.0536 754.472C21.6477 753.859 37.4902 752.719 41.8224 739.367C43.2993 731.812 44.5228 724.226 44.7534 716.458L43.4999 716.196C40.8607 722.006 37.0681 727.412 32.4059 731.779C30.0618 733.903 27.3701 735.856 24.3771 736.409C21.347 737.056 18.5089 735.202 16.9307 732.513L16.9868 732.625C14.3504 725.259 21.2388 718.386 28.2756 716.16C35.63 713.389 43.1135 709.856 48.3194 703.576C53.7913 697.32 53.8207 687.887 50.5395 680.669L50.0282 679.438L49.3675 680.596C46.4521 685.367 42.3418 691.365 36.7933 691.128C34.3888 690.764 32.6915 688.446 31.5558 686.102L31.5878 686.18C30.24 681.564 34.1288 677.013 38.5403 675.134L38.5594 675.124C44.2213 672.347 46.9323 665.276 45.3426 659.376C43.9434 653.418 40.2694 648.434 36.3152 644.031C35.9925 644.324 35.6698 644.618 35.3471 644.911C39.2276 649.22 42.7696 654.097 44.0662 659.661C45.5241 665.167 43.0537 671.434 37.9665 673.959L37.9855 673.949C33.3552 675.932 28.7251 680.916 30.347 686.594L30.379 686.673C31.5922 689.131 33.4206 691.89 36.5933 692.421C43.6858 692.509 47.3618 686.141 50.5041 681.244L49.3321 681.172C52.483 688.197 52.4292 696.847 47.3023 702.754C42.3899 708.7 35.0768 712.21 27.8228 714.933C20.6021 717.195 12.7625 724.613 15.7659 733.094L15.822 733.207C17.4639 736.118 21.0515 738.502 24.6001 737.698C28.0542 737.043 30.8418 734.945 33.289 732.744C38.1278 728.201 41.9548 722.745 44.6989 716.719L43.4454 716.458C43.2224 724.007 42.0068 731.624 40.5399 739.11C36.9345 750.977 21.4087 752.693 10.0536 753.164L10.1296 753.168C7.11957 752.933 3.44412 752.412 0.912748 755.292C-1.15558 758.658 1.08626 762.157 3.28926 764.324L3.31616 764.347C10.2829 770.416 20.0058 765.818 25.8619 760.915C32.1471 755.794 37.3378 749.517 41.7319 742.78L40.5272 742.428C41.3489 755.66 32.3297 766.022 21.762 773.391L21.7855 773.37C18.5834 776.181 15.4217 779.174 13.3668 783.092C12.3955 785.019 11.7059 787.489 12.733 789.742C13.7654 791.973 16.0229 793.158 18.1822 793.639L18.2719 793.653C27.8379 794.808 35.2154 786.424 38.1759 778.372C41.4375 770.113 42.721 761.245 42.8079 752.451L41.5342 752.66C45.5909 766.136 46.5204 782.398 37.7505 793.961C31.7435 800.542 29.0328 813.296 37.9071 819.064L38.0169 819.121C41.8862 821.067 47.76 820.152 49.9647 816.008C52.3411 812.191 52.9952 807.808 53.3579 803.568C53.9045 795.017 53.0104 786.446 50.5591 778.223L49.326 778.657C58.2304 802.751 78.892 827.494 106.921 825.998L106.864 826.003C117.436 825.407 132.85 821.41 132.786 808.016C132.747 804.051 131.249 799.148 126.952 797.577C122.848 796.081 118.537 797.135 114.832 798.787C107.536 801.935 101.227 808.485 93.8037 808.756L93.709 808.749C75.0171 808.47 61.491 791.589 54.4332 775.442L53.2237 775.94C58.2702 785.27 67.3509 790.86 76.1749 795.751C80.7064 798.086 85.4535 800.084 90.5372 801.017C95.2909 802.025 102.376 801.305 104.056 795.487C105.078 792.205 106.191 788.245 103.878 784.872C101.26 781.644 96.8899 781.962 93.5374 782.802L93.5917 782.789C84.3306 784.499 73.9581 785.919 66.1995 780.1L65.4913 781.198C71.8234 785.882 82.4753 782.141 83.6598 773.928C84.2022 771.02 81.6667 767.91 78.6926 767.746L78.5505 767.749C63.5598 770.689 48.1084 759.672 46.2059 744.614L44.9423 744.925C46.8037 750.014 48.9428 755.17 52.762 759.277C54.6576 761.268 57.3563 763.007 60.3783 762.753C63.3759 762.51 65.8422 760.564 67.4889 758.301L67.5649 758.164C71.1557 751.307 66.849 741.939 59.3717 739.981L59.395 739.989C43.94 735.053 46.5816 714.809 52.4713 702.616L51.2755 702.087C49.5261 706.456 48.0902 711.064 48.084 715.908C47.8804 720.696 50.746 725.984 55.5349 727.546C56.794 728.052 58.3869 728.221 59.722 727.486C61.0477 726.767 61.8221 725.472 62.2594 724.203C62.9968 721.668 63.305 718.67 61.0384 716.398C59.268 715.015 59.1946 712.087 59.8047 709.806L59.8239 709.718C60.4908 705.156 60.7861 700.533 60.6623 695.922C60.1579 676.28 51.7624 656.42 36.2192 643.945ZM50.1653 763.543C50.0123 763.134 49.8593 762.726 49.7063 762.318C49.415 762.412 49.1714 762.731 49.117 762.955C49.049 763.189 49.059 763.358 49.0734 763.516C49.1089 763.819 49.1864 764.041 49.2701 764.263C49.44 764.696 49.647 765.072 49.8644 765.438C52.7796 769.891 56.5233 773.438 60.1802 777.068C61.7827 778.622 63.5306 780.056 65.4913 781.198L66.1995 780.1C60.4569 775.967 55.6335 770.562 51.7523 764.633C51.32 763.965 50.901 763.287 50.5007 762.601C50.1241 762.82 49.7475 763.04 49.371 763.26C49.7825 763.965 50.2118 764.66 50.6542 765.343C54.6241 771.404 59.5221 776.902 65.44 781.165L66.1483 780.067C64.3122 778.998 62.6379 777.63 61.0916 776.129C57.4731 772.549 53.6978 768.919 50.9872 764.767C50.7923 764.441 50.6128 764.107 50.4897 763.791C50.4287 763.634 50.3844 763.479 50.374 763.378C50.3674 763.329 50.3775 763.299 50.3676 763.338C50.3676 763.372 50.2634 763.517 50.1653 763.543Z" fill="#52667E"/>
<path d="M320.81 116.627C315.751 151.254 334.266 174.49 344.155 181.78C328.591 164.649 336.049 154.595 341.723 151.709C349.505 148.064 349.83 142.293 349.019 139.863C343.182 127.835 333.941 138.497 330.051 145.331C322.269 126.651 335.887 116.627 351.937 110.704C364.777 105.966 365.069 97.1877 363.61 93.3909C355.663 80.6929 340.589 99.0102 335.887 109.793C335.887 107.059 336.471 98.676 338.805 87.0124C341.14 75.3487 360.53 72.4328 369.933 72.4328C382.384 73.8907 379.93 65.7715 376.256 62.4093C363.805 52.2036 346.101 72.4328 338.805 83.8231C338.805 63.4117 351.791 58.0783 357.774 52.3859C372.559 39.6287 366.528 34.3132 361.665 33.2501C342.599 31.7922 337.832 59.6756 337.832 73.7996C334.914 65.143 331.607 44.6404 341.723 31.8833C351.84 19.1262 345.939 10.4696 341.723 7.73588C324.163 0.604748 325.511 33.5539 330.051 47.8297C314.098 6.64241 285.467 -0.617007 273.145 0.901701C264.553 1.20544 247.465 5.09334 247.854 18.215C248.243 31.3366 259.365 29.4534 264.877 26.8716C273.031 23.0525 281.089 16.0888 286.277 16.8481C307.288 16.8481 321.62 39.325 326.16 50.5634C320.81 37.8063 281.9 15.0257 276.55 30.9721C272.27 43.7292 281.252 44.1848 286.277 42.818C297.338 40.8016 306.181 39.9231 314.167 45.6185C315.804 46.5697 317.535 47.889 319.35 49.6522C329.856 59.8579 330.861 63.0168 330.051 63.3205C326.922 57.9599 321.266 50.6819 314.167 45.6185C303.956 39.6873 297.397 48.0668 296.977 52.3859C296.588 56.3952 299.734 57.7013 301.355 57.8532C324.7 54.9373 333.131 72.4328 334.428 81.545C326.257 58.5822 316.756 63.1687 313.028 68.3323C308.748 78.9025 316.432 84.2787 320.81 85.6455C338.319 91.8419 332.969 113.742 328.105 123.917C331.996 114.349 333.814 103.051 324.214 99.3139C317.738 96.7926 316.432 107.059 319.35 109.337C321.685 111.16 321.296 114.957 320.81 116.627Z" fill="#52667E"/>
<path d="M343.767 182.306C344.026 181.955 344.285 181.604 344.543 181.253C329.458 169.161 321.103 149.574 320.632 130.294C320.51 125.761 320.8 121.213 321.457 116.722L321.437 116.81C322.096 114.192 322.222 110.891 319.753 108.822C316.98 106.007 319.133 97.55 323.977 99.9233C333.502 103.348 330.805 115.784 327.499 123.671L328.695 124.199C331.82 117.444 333.821 110.038 333.465 102.486C333.359 94.9607 328.476 87.2618 321.028 85.029L321.004 85.0213C314.163 83.1098 310.358 75.057 313.634 68.5777L313.558 68.7152C315.042 66.6653 317.256 64.9865 319.709 64.8017C322.17 64.5874 324.512 66.0231 326.283 67.8819C329.842 71.6927 331.991 76.7592 333.812 81.7643L335.075 81.4529C333.165 65.7199 316.708 54.1099 301.274 57.2043L301.416 57.2021C299.068 56.9943 297.241 54.8717 297.628 52.449C298.707 45.431 307.888 41.8549 313.838 46.184L314.546 45.086C306.278 38.9079 295.405 40.4749 286.16 42.1746L286.106 42.1869C282.999 43.0066 279.055 43.067 277.153 40.5912C275.329 38.0547 276.142 34.3261 277.17 31.1801C278.56 26.2866 284.538 25.5756 289.222 26.522C294.088 27.4118 298.759 29.3652 303.208 31.6605C311.855 36.4011 320.947 42.2208 325.556 50.8163L326.766 50.3185C319.538 33.868 305.914 16.5737 286.277 16.1941L286.372 16.201C277.507 16.6373 271.849 23.249 264.6 26.2793C261.137 27.8462 257.004 28.7616 253.513 27.4564C249.926 26.1562 248.562 22.0122 248.508 18.1956C248.252 6.23993 262.799 2.0889 273.168 1.5553L273.225 1.55079C300.141 0.06709 320.663 24.1942 329.441 48.0659L330.674 47.6316C328.288 39.6473 327.393 31.1182 327.933 22.7817C328.275 18.6541 328.964 14.3905 331.119 10.9554C333.161 7.31915 337.759 6.60217 341.477 8.34181L341.368 8.28459C349.288 13.4377 347.054 24.9792 341.211 31.4769C332.013 43.7075 333.084 60.1862 337.213 74.0085L338.486 73.7996C338.568 65.1737 339.849 56.3933 343.023 48.3704C345.97 40.4809 352.777 32.8453 361.615 33.9022L361.525 33.8891C363.43 34.3053 365.304 35.3676 366.063 37.0512C366.846 38.7324 366.352 40.796 365.451 42.5715C363.574 46.1705 360.489 49.1428 357.346 51.8907L357.323 51.9121C347.096 58.9076 337.163 70.2959 338.151 83.8231L338.15 86.0564L339.356 84.1758C343.67 77.5568 348.821 71.34 354.943 66.3559C360.749 61.522 369.656 57.4664 375.841 62.9151L375.814 62.8918C377.807 64.7451 379.494 68.0599 378.018 70.1857C376.374 72.2163 372.882 72.0864 370.009 71.7832L369.933 71.7788C358.339 72.3919 342.496 73.532 338.164 86.884C336.687 94.4391 335.464 102.025 335.233 109.793L336.486 110.054C339.126 104.245 342.918 98.8391 347.58 94.4716C349.925 92.348 352.616 90.3944 355.609 89.8413C358.639 89.1943 361.477 91.0486 363.056 93.7379L363 93.6255C365.636 100.992 358.748 107.865 351.711 110.091C344.356 112.862 336.873 116.394 331.667 122.674C326.195 128.93 326.166 138.364 329.447 145.582L329.958 146.813L330.619 145.654C333.534 140.884 337.645 134.886 343.193 135.123C345.598 135.487 347.295 137.805 348.431 140.149L348.399 140.07C349.746 144.687 345.857 149.238 341.446 151.117L341.427 151.126C335.765 153.904 333.054 160.975 334.644 166.875C336.043 172.833 339.717 177.817 343.671 182.219C343.994 181.926 344.317 181.633 344.639 181.34C340.759 177.031 337.217 172.154 335.92 166.589C334.462 161.084 336.933 154.817 342.02 152.292L342.001 152.302C346.631 150.319 351.261 145.335 349.639 139.656L349.607 139.578C348.394 137.12 346.566 134.36 343.393 133.83C336.3 133.741 332.625 140.109 329.482 145.007L330.654 145.079C327.503 138.054 327.557 129.404 332.684 123.497C337.596 117.551 344.91 114.041 352.164 111.318C359.384 109.056 367.224 101.638 364.22 93.1563L364.164 93.044C362.522 90.1329 358.935 87.7483 355.386 88.5525C351.932 89.2075 349.144 91.3057 346.697 93.5067C341.859 98.0494 338.032 103.506 335.287 109.532L336.541 109.793C336.764 102.243 337.98 94.6267 339.446 87.1407C343.052 75.2742 358.578 73.558 369.933 73.0868L369.857 73.0823C372.867 73.3175 376.542 73.8385 379.074 70.9585C381.142 67.5927 378.9 64.0941 376.697 61.9268L376.67 61.9035C369.703 55.8351 359.981 60.4327 354.124 65.3355C347.839 70.457 342.648 76.7341 338.254 83.4703L339.459 83.8231C338.637 70.5912 347.657 60.2284 358.224 52.8596L358.201 52.881C361.403 50.0698 364.565 47.0769 366.62 43.1583C367.591 41.2319 368.28 38.762 367.253 36.5087C366.221 34.2775 363.963 33.0923 361.804 32.6112L361.714 32.5981C352.148 31.4424 344.771 39.8265 341.81 47.8791C338.549 56.138 337.265 65.0058 337.178 73.7996L338.452 73.5907C334.395 60.1149 333.466 43.853 342.236 32.2897C348.243 25.7092 350.954 12.9546 342.079 7.18717L341.969 7.12994C338.1 5.18417 332.226 6.09919 330.022 10.2429C327.645 14.0594 326.991 18.4425 326.628 22.6828C326.082 31.2336 326.976 39.8047 329.427 48.0279L330.66 47.5935C321.756 23.5002 301.094 -1.24373 273.065 0.252623L273.122 0.248121C262.55 0.844222 247.137 4.84065 247.2 18.2343C247.239 22.1997 248.737 27.1026 253.035 28.6737C257.138 30.1698 261.449 29.116 265.154 27.4638C272.45 24.3161 278.759 17.7658 286.183 17.4952L286.277 17.5021C304.969 17.7804 318.495 34.6614 325.553 50.8083L326.763 50.3105C321.716 40.9811 312.635 35.391 303.811 30.5001C299.28 28.1652 294.533 26.1664 289.449 25.2339C284.695 24.2257 277.61 24.9461 275.93 30.7641C274.909 34.0457 273.795 38.0057 276.108 41.3787C278.726 44.6067 283.096 44.2887 286.449 43.4491L286.395 43.4614C295.656 41.752 306.028 40.3313 313.787 46.1509L314.495 45.053C308.163 40.3687 297.511 44.1098 296.326 52.3227C295.784 55.2312 298.32 58.3408 301.294 58.5044L301.436 58.5022C316.426 55.5613 331.878 66.5791 333.78 81.6372L335.044 81.3258C333.183 76.2369 331.044 71.0804 327.224 66.9738C325.329 64.983 322.63 63.2438 319.608 63.4976C316.61 63.7407 314.144 65.6871 312.497 67.9494L312.421 68.0868C308.831 74.9442 313.137 84.3116 320.615 86.2698L320.591 86.2621C336.046 91.1976 333.405 111.442 327.515 123.635L328.711 124.163C330.46 119.795 331.896 115.187 331.902 110.342C332.106 105.555 329.24 100.266 324.451 98.7045C323.192 98.1992 321.599 98.0293 320.264 98.7644C318.939 99.4837 318.164 100.779 317.727 102.048C316.99 104.583 316.681 107.58 318.948 109.853C320.718 111.236 320.792 114.164 320.182 116.444L320.162 116.533C319.495 121.094 319.2 125.717 319.324 130.329C319.828 149.97 328.224 169.831 343.767 182.306ZM329.821 62.7081C329.974 63.1164 330.127 63.5247 330.28 63.9329C330.571 63.8391 330.815 63.5201 330.869 63.296C330.937 63.0619 330.927 62.8923 330.913 62.7348C330.877 62.4313 330.8 62.2093 330.716 61.9876C330.546 61.5546 330.339 61.1787 330.122 60.8124C327.207 56.3601 323.463 52.8132 319.806 49.1831C318.204 47.629 316.456 46.195 314.495 45.053L313.787 46.1509C319.529 50.2842 324.353 55.689 328.234 61.6179C328.666 62.2859 329.085 62.9642 329.486 63.6502C329.862 63.4304 330.239 63.2107 330.615 62.9909C330.204 62.2858 329.775 61.5909 329.332 60.9073C325.362 54.8472 320.464 49.3492 314.546 45.086L313.838 46.184C315.674 47.2528 317.348 48.621 318.895 50.1213C322.513 53.7021 326.289 57.3315 328.999 61.4832C329.194 61.8101 329.373 62.1442 329.497 62.4601C329.558 62.6165 329.602 62.7715 329.612 62.873C329.619 62.9219 329.609 62.952 329.619 62.9126C329.619 62.8789 329.723 62.7342 329.821 62.7081Z" fill="#52667E"/>
<path d="M320.716 709.812C315.657 675.185 334.172 651.949 344.061 644.659C328.498 661.79 335.955 671.844 341.63 674.729C349.412 678.374 349.736 684.145 348.925 686.575C343.089 698.604 333.848 687.942 329.957 681.108C322.175 699.788 335.793 709.812 351.843 715.735C364.684 720.473 364.975 729.251 363.516 733.048C355.569 745.746 340.495 727.429 335.793 716.646C335.793 719.379 336.377 727.763 338.711 739.426C341.046 751.09 360.436 754.006 369.839 754.006C382.29 752.548 379.836 760.667 376.162 764.029C363.711 774.235 346.007 754.006 338.711 742.616C338.711 763.027 351.698 768.36 357.68 774.053C372.465 786.81 366.434 792.125 361.571 793.189C342.505 794.647 337.739 766.763 337.739 752.639C334.82 761.296 331.513 781.798 341.63 794.555C351.746 807.313 345.845 815.969 341.63 818.703C324.07 825.834 325.417 792.885 329.957 778.609C314.004 819.796 285.373 827.056 273.052 825.537C264.459 825.233 247.371 821.345 247.76 808.224C248.15 795.102 259.271 796.985 264.783 799.567C272.937 803.386 280.996 810.35 286.184 809.591C307.195 809.591 321.526 787.114 326.066 775.875C320.716 788.632 281.806 811.413 276.456 795.467C272.176 782.71 281.158 782.254 286.184 783.621C297.244 785.637 306.087 786.516 314.073 780.82C315.71 779.869 317.442 778.55 319.257 776.787C329.762 766.581 330.767 763.422 329.957 763.118C326.828 768.479 321.172 775.757 314.073 780.82C303.863 786.751 297.303 778.372 296.884 774.053C296.495 770.043 299.64 768.737 301.261 768.586C324.607 771.501 333.037 754.006 334.334 744.894C326.163 767.857 316.663 763.27 312.934 758.106C308.654 747.536 316.338 742.16 320.716 740.793C338.225 734.597 332.875 712.697 328.011 702.522C331.902 712.09 333.72 723.387 324.12 727.125C317.645 729.646 316.338 719.379 319.257 717.101C321.591 715.279 321.202 711.482 320.716 709.812Z" fill="#52667E"/>
<path d="M343.673 644.133C343.932 644.484 344.191 644.835 344.45 645.185C329.365 657.278 321.009 676.865 320.538 696.145C320.416 700.678 320.706 705.225 321.363 709.717L321.344 709.629C322.002 712.247 322.128 715.548 319.659 717.617C316.886 720.432 319.04 728.889 323.883 726.515C333.408 723.091 330.711 710.655 327.405 702.768L328.601 702.24C331.726 708.994 333.727 716.401 333.372 723.953C333.265 731.478 328.382 739.177 320.934 741.41L320.911 741.417C314.069 743.329 310.265 751.382 313.54 757.861L313.464 757.724C314.948 759.773 317.163 761.452 319.615 761.637C322.077 761.851 324.419 760.416 326.189 758.557C329.748 754.746 331.897 749.68 333.718 744.674L334.982 744.986C333.072 760.719 316.614 772.329 301.18 769.234L301.322 769.237C298.975 769.444 297.148 771.567 297.535 773.99C298.613 781.008 307.795 784.584 313.744 780.255L314.453 781.353C306.184 787.531 295.311 785.964 286.066 784.264L286.012 784.252C282.905 783.432 278.962 783.372 277.059 785.848C275.235 788.384 276.049 792.113 277.076 795.259C278.466 800.152 284.444 800.863 289.128 799.917C293.995 799.027 298.665 797.074 303.114 794.778C311.761 790.038 320.854 784.218 325.463 775.622L326.672 776.12C319.444 792.571 305.82 809.865 286.184 810.245L286.278 810.238C277.413 809.801 271.756 803.19 264.506 800.159C261.043 798.593 256.911 797.677 253.419 798.982C249.832 800.282 248.468 804.427 248.414 808.243C248.158 820.199 262.705 824.35 273.075 824.883L273.132 824.888C300.048 826.372 320.57 802.244 329.347 778.373L330.58 778.807C328.194 786.791 327.3 795.32 327.839 803.657C328.181 807.785 328.87 812.048 331.025 815.483C333.068 819.12 337.665 819.837 341.384 818.097L341.274 818.154C349.194 813.001 346.96 801.46 341.117 794.962C331.919 782.731 332.99 766.253 337.119 752.43L338.393 752.639C338.474 761.265 339.755 770.045 342.929 778.068C345.877 785.958 352.684 793.593 361.521 792.536L361.431 792.55C363.336 792.133 365.21 791.071 365.969 789.387C366.752 787.706 366.258 785.643 365.357 783.867C363.48 780.268 360.395 777.296 357.253 774.548L357.229 774.527C347.002 767.531 337.069 756.143 338.057 742.616L338.056 740.382L339.262 742.263C343.576 748.882 348.727 755.099 354.849 760.083C360.655 764.917 369.563 768.972 375.747 763.524L375.72 763.547C377.714 761.694 379.4 758.379 377.925 756.253C376.28 754.222 372.788 754.352 369.915 754.656L369.839 754.66C358.245 754.047 342.402 752.907 338.07 739.555C336.593 732 335.37 724.414 335.139 716.646L336.393 716.384C339.032 722.194 342.824 727.6 347.487 731.967C349.831 734.091 352.523 736.044 355.515 736.597C358.546 737.244 361.384 735.39 362.962 732.701L362.906 732.813C365.542 725.447 358.654 718.574 351.617 716.348C344.263 713.577 336.779 710.044 331.573 703.764C326.101 697.508 326.072 688.075 329.353 680.857L329.864 679.626L330.525 680.784C333.441 685.555 337.551 691.553 343.099 691.316C345.504 690.952 347.201 688.634 348.337 686.29L348.305 686.368C349.653 681.752 345.764 677.201 341.352 675.322L341.333 675.312C335.671 672.535 332.96 665.464 334.55 659.564C335.949 653.606 339.623 648.622 343.577 644.219C343.9 644.512 344.223 644.806 344.546 645.099C340.665 649.408 337.123 654.285 335.826 659.849C334.368 665.355 336.839 671.622 341.926 674.147L341.907 674.137C346.537 676.12 351.167 681.104 349.546 686.782L349.514 686.861C348.3 689.319 346.472 692.078 343.299 692.609C336.207 692.697 332.531 686.329 329.388 681.432L330.56 681.36C327.41 688.385 327.463 697.035 332.59 702.942C337.503 708.888 344.816 712.398 352.07 715.121C359.29 717.383 367.13 724.801 364.127 733.282L364.071 733.395C362.429 736.306 358.841 738.69 355.292 737.886C351.838 737.231 349.051 735.133 346.604 732.932C341.765 728.389 337.938 722.933 335.194 716.907L336.447 716.646C336.67 724.195 337.886 731.812 339.353 739.298C342.958 751.165 358.484 752.881 369.839 753.352L369.763 753.356C372.773 753.121 376.448 752.6 378.98 755.48C381.048 758.846 378.806 762.345 376.603 764.512L376.576 764.535C369.61 770.604 359.887 766.006 354.031 761.103C347.745 755.982 342.555 749.705 338.161 742.968L339.365 742.616C338.544 755.848 347.563 766.21 358.131 773.579L358.107 773.558C361.309 776.369 364.471 779.362 366.526 783.28C367.497 785.207 368.187 787.677 367.16 789.93C366.127 792.161 363.87 793.346 361.71 793.827L361.621 793.841C352.055 794.996 344.677 786.612 341.717 778.56C338.455 770.301 337.172 761.433 337.085 752.639L338.358 752.848C334.302 766.324 333.372 782.586 342.142 794.149C348.149 800.73 350.86 813.484 341.985 819.252L341.876 819.309C338.006 821.255 332.133 820.34 329.928 816.196C327.551 812.379 326.897 807.996 326.535 803.756C325.988 795.205 326.882 786.634 329.334 778.411L330.567 778.845C321.662 802.939 301.001 827.682 272.972 826.186L273.029 826.191C262.457 825.595 247.043 821.598 247.107 808.204C247.145 804.239 248.643 799.336 252.941 797.765C257.045 796.269 261.355 797.323 265.061 798.975C272.357 802.123 278.665 808.673 286.089 808.944L286.184 808.937C304.875 808.658 318.402 791.777 325.459 775.63L326.669 776.128C321.622 785.458 312.542 791.048 303.718 795.939C299.186 798.274 294.439 800.272 289.355 801.205C284.602 802.213 277.516 801.493 275.836 795.675C274.815 792.393 273.701 788.433 276.014 785.06C278.632 781.832 283.003 782.15 286.355 782.99L286.301 782.977C295.562 784.687 305.934 786.107 313.693 780.288L314.401 781.386C308.069 786.07 297.417 782.329 296.233 774.116C295.69 771.208 298.226 768.098 301.2 767.934L301.342 767.937C316.333 770.877 331.784 759.86 333.687 744.802L334.95 745.113C333.089 750.202 330.95 755.358 327.131 759.465C325.235 761.456 322.536 763.195 319.514 762.941C316.517 762.698 314.05 760.752 312.404 758.489L312.328 758.352C308.737 751.495 313.044 742.127 320.521 740.169L320.498 740.177C335.953 735.241 333.311 714.997 327.421 702.804L328.617 702.275C330.367 706.644 331.802 711.252 331.809 716.096C332.012 720.884 329.147 726.172 324.358 727.734C323.099 728.24 321.506 728.409 320.171 727.674C318.845 726.955 318.07 725.66 317.633 724.391C316.896 721.856 316.588 718.858 318.854 716.586C320.625 715.203 320.698 712.275 320.088 709.994L320.069 709.906C319.402 705.344 319.107 700.721 319.23 696.11C319.735 676.468 328.13 656.608 343.673 644.133ZM329.727 763.731C329.88 763.322 330.033 762.914 330.186 762.506C330.478 762.6 330.721 762.919 330.776 763.143C330.844 763.377 330.834 763.546 330.819 763.704C330.784 764.007 330.706 764.229 330.622 764.451C330.453 764.884 330.246 765.26 330.028 765.626C327.113 770.079 323.369 773.626 319.712 777.256C318.11 778.81 316.362 780.244 314.401 781.386L313.693 780.288C319.436 776.155 324.259 770.75 328.14 764.821C328.573 764.153 328.992 763.475 329.392 762.789C329.768 763.008 330.145 763.228 330.522 763.448C330.11 764.153 329.681 764.848 329.238 765.531C325.268 771.592 320.37 777.09 314.453 781.353L313.744 780.255C315.58 779.186 317.255 777.818 318.801 776.317C322.42 772.737 326.195 769.107 328.905 764.955C329.1 764.629 329.28 764.294 329.403 763.979C329.464 763.822 329.508 763.667 329.519 763.566C329.525 763.517 329.515 763.487 329.525 763.526C329.525 763.56 329.629 763.705 329.727 763.731Z" fill="#52667E"/>
</svg>
